<?xml version="1.0" encoding="UTF-8" standalone="no"?>
<!-- Created with Inkscape (http://www.inkscape.org/) -->

<svg
   xmlns:dc="http://purl.org/dc/elements/1.1/"
   xmlns:cc="http://creativecommons.org/ns#"
   xmlns:rdf="http://www.w3.org/1999/02/22-rdf-syntax-ns#"
   xmlns:svg="http://www.w3.org/2000/svg"
   xmlns="http://www.w3.org/2000/svg"
   version="1.1"
   width="38"
   height="38"
   id="svg12090"
   viewBox="0 0 38 38">
  <defs
     id="defs12092" />
  <metadata
     id="metadata12095">
    <rdf:RDF>
      <cc:Work
         rdf:about="">
        <dc:format>image/svg+xml</dc:format>
        <dc:type
           rdf:resource="http://purl.org/dc/dcmitype/StillImage" />
        <dc:title></dc:title>
      </cc:Work>
    </rdf:RDF>
  </metadata>
  <g
     transform="translate(-514.73152,-507.26548)"
     id="layer1">
    <g
       transform="matrix(1.325566,0,0,-1.3255197,538.4565,526.93222)"
       id="g1276">
      <path
         d="m 0,0 -2.332,0 0,-8.315 -3.456,0 0,8.315 -1.644,0 0,2.937 1.644,0 0,1.9 c 0,1.359 0.645,3.487 3.487,3.487 l 2.56,-0.011 0,-2.85 -1.858,0 c -0.304,0 -0.733,-0.152 -0.733,-0.8 l 0,-1.729 2.633,0 L 0,0 z m -3.566,14.837 c -7.903,0 -14.332,-6.431 -14.332,-14.333 0,-7.904 6.429,-14.335 14.332,-14.335 7.904,0 14.335,6.431 14.335,14.335 0,7.902 -6.431,14.333 -14.335,14.333"
         id="path1278"
         style="fill:#c7c7c7;fill-opacity:1;fill-rule:nonzero;stroke:none" />
    </g>
  </g>
</svg>
