<?xml version="1.0" encoding="UTF-8" standalone="no"?>
<!-- Created with Inkscape (http://www.inkscape.org/) -->

<svg
   xmlns:dc="http://purl.org/dc/elements/1.1/"
   xmlns:cc="http://creativecommons.org/ns#"
   xmlns:rdf="http://www.w3.org/1999/02/22-rdf-syntax-ns#"
   xmlns:svg="http://www.w3.org/2000/svg"
   xmlns="http://www.w3.org/2000/svg"
   version="1.1"
   width="38"
   height="38"
   id="svg12090"
   viewBox="0 0 38 38">
  <defs
     id="defs12092" />
  <metadata
     id="metadata12095">
    <rdf:RDF>
      <cc:Work
         rdf:about="">
        <dc:format>image/svg+xml</dc:format>
        <dc:type
           rdf:resource="http://purl.org/dc/dcmitype/StillImage" />
        <dc:title></dc:title>
      </cc:Work>
    </rdf:RDF>
  </metadata>
  <g
     transform="translate(-514.61268,-506.93727)"
     id="layer1">
    <g
       transform="matrix(1.25,0,0,-1.25,517.34527,509.89289)"
       id="g1264">
      <path
         d="m 0,0 0,-21.106 14.898,0 0,1.242 -4.966,0 0,1.656 -1.241,0 0,-1.656 -7.451,0 0,9.932 7.451,0 0,-3.312 1.241,0 0,0.829 7.862,0 0,1.241 -7.862,0 0,7.45 -1.241,0 0,-4.967 -7.451,0 0,7.451 24.005,0 0,-9.934 -3.312,0 0,1.657 -1.242,0 0,-2.898 4.554,0 0,-12.415 -5.381,0 0,4.139 -1.241,0 0,-5.38 7.862,0 L 26.485,0 0,0 z"
         id="path1266"
         style="fill:#3b2911;fill-opacity:1;fill-rule:nonzero;stroke:none" />
    </g>
  </g>
</svg>
