<?xml version="1.0" encoding="utf-8"?>
<!-- Generator: Adobe Illustrator 16.0.0, SVG Export Plug-In . SVG Version: 6.00 Build 0)  -->
<!DOCTYPE svg PUBLIC "-//W3C//DTD SVG 1.1//EN" "http://www.w3.org/Graphics/SVG/1.1/DTD/svg11.dtd">
<svg version="1.1" id="Capa_1" xmlns="http://www.w3.org/2000/svg" xmlns:xlink="http://www.w3.org/1999/xlink" x="0px" y="0px"
	 width="47.755px" height="69.324px" viewBox="0 0 47.755 69.324" enable-background="new 0 0 47.755 69.324" xml:space="preserve">
<g>
	<g>
		<g>
			<g>
				
					<linearGradient id="SVGID_1_" gradientUnits="userSpaceOnUse" x1="4.3018" y1="42.8779" x2="31.1119" y2="15.7584" gradientTransform="matrix(0.9961 0.0881 -0.0881 0.9961 14.4666 -8.7019)">
					<stop  offset="0" style="stop-color:#E5951B"/>
					<stop  offset="0.2592" style="stop-color:#EDC306"/>
					<stop  offset="0.9799" style="stop-color:#F3E000"/>
				</linearGradient>
				<path fill="url(#SVGID_1_)" d="M7.515,28.012c-0.104-0.262-0.164-0.437-0.139-0.431c2.902,0.712,6.563-0.337,9.115-1.72
					c3.059-1.658,6.447-2.09,9.293-4.305c1.689-1.32,3.582-2.483,5.232-3.898c0.828-0.711,1.625-1.49,2.262-2.381
					c0.633-0.874,0.92-1.984,1.688-2.757c0.746-0.751,1.703-1.446,2.74-1.655c1.665-0.34,4.016,0.209,5.225,1.459
					c0.627,0.652,0.949,1.541,1.631,2.184c0.234,0.224,2.951,1.034,3.193,0.805c-1.719,0.549-2.596-0.019-3.988,1.1
					c-2.77,2.223-5.131,8.008-6.896,10.953c-4.276,7.124-12.063,12.294-20.362,8.845C12.464,34.529,9.187,32.217,7.515,28.012z"/>
			</g>
			<g>
				<path opacity="0.9" fill="#D5448C" d="M28.636,20.905c0.027,0.011,0.053,0.022,0.074,0.032
					c-0.039-0.033-0.098-0.086-0.176-0.146c-2.939-1.525-11.814-7.926-12.75-10.563c-0.427-1.205,0.211-2.646,1.299-4.064
					c-0.836-1.838-1.367-3.193-1.367-3.193s-5.463,7.863-4.053,11.547c2.27,1.215,5.621,2.902,8.662,4.032
					C24.376,20.056,27.757,20.24,28.636,20.905z"/>
				<path opacity="0.9" fill="#D5448C" d="M28.535,20.791c0.209,0.107,0.389,0.19,0.533,0.248c0,0-2.82-3.105-4.144-9.25
					C23.636,5.79,24.093,0,24.093,0s-4.602,3.021-7.01,6.164c0.816,1.797,1.926,4.054,3.12,5.965
					C22.248,15.401,27.369,19.807,28.535,20.791z"/>
				<path opacity="0.9" fill="#8D2E61" d="M15.785,10.229c0.936,2.637,9.811,9.037,12.75,10.563
					c-1.166-0.984-6.287-5.39-8.331-8.662c-1.194-1.911-2.304-4.168-3.12-5.965C15.996,7.582,15.358,9.023,15.785,10.229z"/>
				<path opacity="0.9" fill="#D5448C" d="M27.091,20.865c-4.805-0.542-12.432-2.73-14.939-5.534
					c-0.213-0.239-0.373-0.511-0.488-0.813c-1.627-0.87-2.701-1.498-2.701-1.498s-0.059,4.604,2.752,8.611
					c1.102,0.088,4.811,0.373,5.971,0.344C21.328,21.885,24.978,21.076,27.091,20.865z"/>
				<path opacity="0.9" fill="#8D2E61" d="M27.091,20.866c1.572,0.011,1.869,0.161,1.543,0.04c-0.877-0.666-4.258-0.851-8.309-2.356
					c-3.041-1.13-6.393-2.816-8.662-4.032c0.115,0.303,0.275,0.574,0.488,0.813C14.66,18.136,22.287,20.323,27.091,20.866z"/>
				<path opacity="0.8" fill="#854880" d="M28.71,20.938c0.043,0.036,0.068,0.055,0.068,0.055c-0.018-0.001-0.031-0.002-0.049-0.002
					c0.045,0.047,0.078,0.098,0.1,0.148c0.02-0.053,0.031-0.084,0.031-0.084C28.826,21.007,28.775,20.971,28.71,20.938z"/>
				<path opacity="0.9" fill="#D5448C" d="M17.132,25.428c-0.938-0.944-1.922-2.203-2.871-3.557
					c-3.893-0.309-7.076-1.143-7.076-1.143s2.02,9.488,12.848,8.492c7.355-0.677,8.168-6.502,8.748-7.955
					C27.992,22.027,20.644,28.966,17.132,25.428z"/>
				<path opacity="0.8" fill="#C12771" d="M28.73,20.99c0.018,0,0.031,0.001,0.049,0.002c0,0-0.025-0.019-0.068-0.055
					c-0.021-0.01-0.047-0.021-0.074-0.032C28.671,20.933,28.703,20.963,28.73,20.99z"/>
				<path opacity="0.8" fill="#854880" d="M28.73,20.99c0.018,0,0.031,0.001,0.049,0.002c0,0-0.025-0.019-0.068-0.055
					c-0.021-0.01-0.047-0.021-0.074-0.032C28.671,20.933,28.703,20.963,28.73,20.99z"/>
				<path opacity="0.97" fill="#854880" d="M28.73,20.99c-0.494-0.014-1.043-0.057-1.639-0.125c-2.113,0.211-5.764,1.02-9.406,1.109
					c-1.16,0.029-2.32-0.016-3.424-0.104c0.949,1.354,1.934,2.612,2.871,3.557c3.512,3.538,10.859-3.4,11.648-4.162
					c0.02-0.051,0.035-0.094,0.049-0.127C28.808,21.088,28.775,21.037,28.73,20.99z"/>
				<path opacity="0.9" fill="#8D2E61" d="M28.73,20.99c-0.195-0.199-0.39-0.43-0.984-0.498c-2.115,0.211-6.418,1.393-10.061,1.482
					c-1.16,0.029-4.869-0.256-5.971-0.344c0.947,1.354,2.604,3.189,3.76,3.84c6.287,3.527,12.518-3.443,13.307-4.205
					c0.02-0.051,0.035-0.094,0.049-0.127C28.808,21.088,28.775,21.037,28.73,20.99z"/>
				<path opacity="0.8" fill="#C12771" d="M27.091,20.865c0.596,0.068,1.145,0.111,1.639,0.125
					c-0.027-0.027-0.059-0.058-0.094-0.085C28.33,20.793,27.798,20.795,27.091,20.865z"/>
				<path fill="#9F3D8A" d="M27.091,20.865c0.596,0.068,1.145,0.111,1.639,0.125c-0.027-0.027-0.059-0.058-0.094-0.085
					C28.33,20.793,27.798,20.795,27.091,20.865z"/>
			</g>
			<g>
				<path fill="#9AA920" d="M7.863,27.381c0,0-0.146,0.201-0.529,0.414C7.55,27.689,7.863,27.516,7.863,27.381z"/>
				<path fill="#AABB13" d="M7.726,24.008c-0.092-0.354-3.133-1.225-3.697,0.283c-0.082,0.216,0.521,0.95,1.219,1.7
					c1.332,0.724,2.615,1.39,2.615,1.39C7.863,26.295,7.79,24.245,7.726,24.008z"/>
				<path fill="#AABB13" d="M5.248,25.991c-1.139-0.619-2.311-1.278-2.748-1.593c-1.945-1.402-3.24,2.531-2.031,2.958
					c4.057,1.431,6.029,0.907,6.865,0.438c-0.111,0.057-0.199,0.094-0.199,0.094S6.121,26.928,5.248,25.991z"/>
				<path fill="#9AA920" d="M7.863,27.381c0,0-1.283-0.666-2.615-1.39c0.873,0.937,1.887,1.897,1.887,1.897s0.088-0.037,0.199-0.094
					C7.716,27.582,7.863,27.381,7.863,27.381z"/>
			</g>
		</g>
	</g>
	<path fill="#D5448C" d="M24.615,50.508c3.053-1.822,4.131-3.021,2.951-6.637c-0.795-2.436-3.123-5.814-6.127-5.107
		c-10.854,2.557-4.82,15.359-0.992,21.391c3.925,6.184,12.244,13.154,18.967,6.408c2.672-2.684-1.453-7.49-3.611-8.754
		c-0.541-0.316-1.346-0.17-1.895,0.066c-4.871,2.092-7.666-1.254-9.395-5.695c-0.316-0.814-2.023-0.338-1.715,0.459
		c1.209,3.109,3.547,7.014,6.961,7.973c0.594,0.168,1.375-0.018,1.908-0.25c0.711-0.283,1.398-0.611,2.063-0.988
		c0.797,0.305,1.592,0.611,2.387,0.916c2.291,1.949,1.932,4.436-1.08,7.453c-7.113,2.461-12.793-7.586-15.457-12.498
		c-1.662-3.066-2.754-6.395-2.658-9.9c0.24-8.918,15.48-1.041,6.912,4.076C22.841,50.014,23.748,51.025,24.615,50.508L24.615,50.508
		z"/>
</g>
</svg>
