<?xml version="1.0" encoding="utf-8"?>
<!-- Generator: Adobe Illustrator 16.0.0, SVG Export Plug-In . SVG Version: 6.00 Build 0)  -->
<!DOCTYPE svg PUBLIC "-//W3C//DTD SVG 1.1//EN" "http://www.w3.org/Graphics/SVG/1.1/DTD/svg11.dtd">
<svg version="1.1" id="Capa_1" xmlns="http://www.w3.org/2000/svg" xmlns:xlink="http://www.w3.org/1999/xlink" x="0px" y="0px"
	 width="49.134px" height="31.535px" viewBox="0 0 49.134 31.535" enable-background="new 0 0 49.134 31.535" xml:space="preserve">
<g>
	<g>
		<g>
			<path fill="#595D30" d="M135.852,2.068h-1.171V-3.54l-2.154,4.226h-1.169l-2.143-4.202v5.584h-1.171v-8.193h1.171l2.728,5.36
				l2.738-5.36h1.171V2.068z"/>
			<path fill="#595D30" d="M142.197-0.226c0,0.226,0.006,0.406,0.018,0.538c0.011,0.133,0.053,0.262,0.123,0.386
				c0.069,0.126,0.168,0.188,0.293,0.188l-0.188,1.171c-0.601-0.07-0.988-0.211-1.16-0.421c-0.507,0.327-1.018,0.491-1.533,0.491
				c-0.468,0-0.894-0.088-1.275-0.263c-0.382-0.177-0.689-0.408-0.919-0.697c-0.23-0.289-0.408-0.602-0.532-0.937
				c-0.126-0.335-0.188-0.675-0.188-1.018c0-0.906,0.244-1.642,0.731-2.207s1.169-0.849,2.043-0.849
				c0.765,0,1.387,0.208,1.867,0.626c0.479,0.417,0.72,0.938,0.72,1.563V-0.226z M141.026,0.464l-0.012-2.037
				c-0.046-0.733-0.515-1.1-1.404-1.1c-0.438,0-0.812,0.171-1.124,0.515c-0.312,0.344-0.468,0.788-0.468,1.334
				c0,0.461,0.156,0.872,0.468,1.235c0.313,0.362,0.733,0.544,1.264,0.544C140.273,0.956,140.699,0.792,141.026,0.464z"/>
			<path fill="#595D30" d="M148.81-0.226c0,0.218,0.008,0.397,0.023,0.538s0.057,0.271,0.123,0.393
				c0.066,0.12,0.162,0.181,0.287,0.181l-0.188,1.171c-0.601-0.07-0.99-0.211-1.17-0.421c-0.484,0.327-1.054,0.491-1.71,0.491
				c-0.468,0-0.894-0.088-1.276-0.263c-0.382-0.177-0.688-0.408-0.919-0.697c-0.229-0.289-0.407-0.602-0.532-0.937
				c-0.124-0.335-0.187-0.675-0.187-1.018c0-0.906,0.243-1.642,0.731-2.207c0.487-0.565,1.169-0.849,2.043-0.849
				c0.647,0,1.183,0.233,1.604,0.702v-3.57h1.17V-0.226z M144.935,0.417c0.329,0.359,0.742,0.538,1.241,0.538
				c0.563,0,1.05-0.152,1.464-0.456v-1.687c0-0.507-0.148-0.882-0.444-1.122c-0.297-0.243-0.684-0.363-1.159-0.363
				c-0.483,0-0.87,0.176-1.159,0.526s-0.433,0.792-0.433,1.322C144.445-0.355,144.609,0.059,144.935,0.417z"/>
			<path fill="#595D30" d="M153.68-2.672h-0.246c-0.477,0-0.862,0.12-1.159,0.363c-0.297,0.24-0.444,0.615-0.444,1.122v3.255h-1.171
				v-3.547c0-0.227-0.006-0.406-0.018-0.538c-0.012-0.133-0.053-0.262-0.123-0.387c-0.069-0.125-0.168-0.188-0.292-0.188l0.187-1.17
				c0.414,0.046,0.723,0.123,0.925,0.229c0.203,0.104,0.344,0.282,0.422,0.532c0.39-0.562,0.948-0.843,1.674-0.843h0.246V-2.672z"/>
			<path fill="#595D30" d="M154.716-5.342c-0.16-0.163-0.24-0.351-0.24-0.562c0-0.227,0.078-0.418,0.233-0.574
				c0.157-0.155,0.349-0.233,0.574-0.233c0.227,0,0.417,0.078,0.573,0.233c0.156,0.156,0.234,0.348,0.234,0.574
				c0,0.211-0.08,0.398-0.239,0.562c-0.161,0.164-0.35,0.246-0.568,0.246S154.875-5.178,154.716-5.342z M155.869,2.068h-1.17v-5.853
				h1.17V2.068z"/>
			<path fill="#595D30" d="M162.682-2.614c-0.125,0-0.223,0.062-0.294,0.188c-0.069,0.123-0.11,0.255-0.122,0.392
				c-0.012,0.136-0.018,0.313-0.018,0.532v3.84c0,0.608-0.235,1.108-0.709,1.499c-0.472,0.39-1.066,0.585-1.785,0.585
				c-0.936,0-1.626-0.227-2.071-0.679l0.69-0.902c0.305,0.273,0.765,0.41,1.381,0.41c0.383,0,0.699-0.096,0.948-0.287
				c0.251-0.191,0.375-0.399,0.375-0.626V1.974c-0.358,0.102-0.784,0.152-1.275,0.152c-0.617,0-1.153-0.152-1.61-0.456
				c-0.456-0.305-0.788-0.671-0.994-1.101c-0.207-0.43-0.311-0.878-0.311-1.347c0-0.905,0.243-1.643,0.731-2.212
				c0.488-0.57,1.169-0.854,2.043-0.854c0.663,0,1.222,0.159,1.674,0.479c0.171-0.21,0.558-0.352,1.158-0.421L162.682-2.614z
				 M161.078,0.733v-2.294c-0.063-0.742-0.534-1.111-1.416-1.111c-0.43,0-0.802,0.174-1.118,0.521
				c-0.315,0.347-0.474,0.794-0.474,1.341c0,0.46,0.155,0.87,0.468,1.229c0.313,0.359,0.733,0.538,1.265,0.538
				C160.254,0.956,160.68,0.881,161.078,0.733z"/>
			<path fill="#595D30" d="M168.792-0.226c0,0.226,0.007,0.406,0.019,0.538c0.011,0.133,0.053,0.262,0.122,0.386
				c0.07,0.126,0.169,0.188,0.293,0.188l-0.188,1.171c-0.601-0.07-0.986-0.211-1.158-0.421c-0.508,0.327-1.019,0.491-1.534,0.491
				c-0.468,0-0.893-0.088-1.276-0.263c-0.382-0.177-0.688-0.408-0.919-0.697c-0.229-0.289-0.407-0.602-0.532-0.937
				s-0.188-0.675-0.188-1.018c0-0.906,0.244-1.642,0.731-2.207c0.488-0.565,1.169-0.849,2.043-0.849
				c0.766,0,1.388,0.208,1.868,0.626c0.479,0.417,0.719,0.938,0.719,1.563V-0.226z M167.622,0.464l-0.012-2.037
				c-0.047-0.733-0.515-1.1-1.405-1.1c-0.437,0-0.812,0.171-1.123,0.515c-0.313,0.344-0.469,0.788-0.469,1.334
				c0,0.461,0.156,0.872,0.469,1.235c0.312,0.362,0.733,0.544,1.264,0.544C166.869,0.956,167.294,0.792,167.622,0.464z"/>
			<path fill="#595D30" d="M171.262,2.068h-1.171v-8.779h1.171V2.068z"/>
		</g>
	</g>
	<g>
		<g>
			<polygon fill="#595D30" points="128.044,-7.6 131.832,-7.6 131.832,-8.697 129.14,-8.697 129.14,-9.645 131.321,-9.645 
				131.321,-10.706 129.14,-10.732 129.14,-11.637 131.832,-11.637 131.832,-12.733 128.044,-12.733 			"/>
			<rect x="132.679" y="-13.069" fill="#595D30" width="1.097" height="5.469"/>
		</g>
	</g>
	<g>
		<g>
			<g>
				
					<linearGradient id="SVGID_1_" gradientUnits="userSpaceOnUse" x1="148.3315" y1="-9.7188" x2="158.722" y2="-20.2291" gradientTransform="matrix(0.9961 0.0881 -0.0881 0.9961 12.2681 -10.7646)">
					<stop  offset="0" style="stop-color:#D0932E"/>
					<stop  offset="0.2592" style="stop-color:#E0C12F"/>
					<stop  offset="0.9799" style="stop-color:#ECDE34"/>
				</linearGradient>
				<path fill="url(#SVGID_1_)" d="M157.986-9.848c-0.039-0.102-0.063-0.169-0.054-0.167c1.126,0.276,2.544-0.131,3.532-0.666
					c1.187-0.643,2.499-0.811,3.602-1.668c0.656-0.513,1.39-0.963,2.029-1.512c0.32-0.275,0.629-0.577,0.877-0.922
					c0.244-0.339,0.355-0.77,0.653-1.068c0.289-0.292,0.66-0.561,1.062-0.643c0.646-0.131,1.557,0.082,2.024,0.566
					c0.243,0.252,0.368,0.597,0.633,0.846c0.09,0.087,1.144,0.4,1.237,0.312c-0.666,0.213-1.006-0.007-1.545,0.427
					c-1.073,0.861-1.989,3.104-2.674,4.244c-1.656,2.762-4.675,4.765-7.891,3.428C159.905-7.323,158.634-8.218,157.986-9.848z"/>
			</g>
			<g>
				<path opacity="0.9" fill="#B84688" d="M166.172-12.602c0.011,0.004,0.021,0.009,0.029,0.013
					c-0.016-0.014-0.039-0.033-0.068-0.058c-1.14-0.591-4.579-3.071-4.942-4.093c-0.165-0.467,0.082-1.025,0.504-1.575
					c-0.324-0.712-0.529-1.237-0.529-1.237s-2.118,3.047-1.571,4.475c0.88,0.471,2.179,1.125,3.356,1.563
					C164.522-12.931,165.832-12.86,166.172-12.602z"/>
				<path opacity="0.9" fill="#B84688" d="M166.133-12.647c0.08,0.042,0.15,0.074,0.206,0.097c0,0-1.094-1.203-1.605-3.585
					c-0.499-2.324-0.322-4.568-0.322-4.568s-1.783,1.17-2.717,2.389c0.316,0.696,0.746,1.57,1.209,2.312
					C163.697-14.735,165.681-13.028,166.133-12.647z"/>
				<path opacity="0.9" fill="#7A3260" d="M161.191-16.74c0.363,1.021,3.803,3.502,4.942,4.093
					c-0.452-0.381-2.437-2.088-3.229-3.356c-0.463-0.741-0.893-1.615-1.209-2.312C161.273-17.765,161.026-17.207,161.191-16.74z"/>
				<path opacity="0.9" fill="#B84688" d="M165.574-12.618c-1.862-0.21-4.818-1.059-5.79-2.145
					c-0.082-0.093-0.145-0.198-0.189-0.315c-0.631-0.337-1.047-0.58-1.047-0.58s-0.022,1.783,1.066,3.336
					c0.428,0.034,1.864,0.145,2.314,0.134C163.339-12.222,164.754-12.536,165.574-12.618z"/>
				<path opacity="0.9" fill="#7A3260" d="M165.573-12.618c0.61,0.005,0.725,0.063,0.599,0.017c-0.34-0.259-1.649-0.33-3.221-0.914
					c-1.178-0.438-2.477-1.092-3.356-1.563c0.045,0.117,0.107,0.223,0.189,0.315C160.755-13.675,163.711-12.828,165.573-12.618z"/>
				<path opacity="0.8" fill="#77497D" d="M166.202-12.589c0.017,0.014,0.025,0.021,0.025,0.021
					c-0.007-0.001-0.013-0.002-0.019-0.001c0.017,0.018,0.029,0.037,0.038,0.058c0.009-0.021,0.013-0.033,0.013-0.033
					C166.246-12.563,166.226-12.577,166.202-12.589z"/>
				<path opacity="0.9" fill="#B84688" d="M161.714-10.849c-0.363-0.366-0.746-0.854-1.113-1.378
					c-1.509-0.12-2.742-0.443-2.742-0.443s0.782,3.677,4.979,3.291c2.851-0.262,3.165-2.52,3.389-3.083
					C165.922-12.167,163.075-9.479,161.714-10.849z"/>
				<path opacity="0.8" fill="#A52B6F" d="M166.208-12.569c0.006-0.001,0.012,0,0.019,0.001c0,0-0.009-0.008-0.025-0.021
					c-0.009-0.004-0.019-0.009-0.029-0.013C166.185-12.591,166.197-12.581,166.208-12.569z"/>
				<path opacity="0.8" fill="#77497D" d="M166.208-12.569c0.006-0.001,0.012,0,0.019,0.001c0,0-0.009-0.008-0.025-0.021
					c-0.009-0.004-0.019-0.009-0.029-0.013C166.185-12.591,166.197-12.581,166.208-12.569z"/>
				<path opacity="0.97" fill="#77497D" d="M166.208-12.569c-0.191-0.006-0.404-0.022-0.635-0.049
					c-0.819,0.082-2.234,0.396-3.646,0.43c-0.45,0.011-0.899-0.006-1.327-0.039c0.367,0.523,0.75,1.012,1.113,1.378
					c1.36,1.37,4.208-1.317,4.513-1.613c0.009-0.02,0.015-0.036,0.02-0.049C166.238-12.532,166.225-12.551,166.208-12.569z"/>
				<path opacity="0.9" fill="#7A3260" d="M166.208-12.569c-0.075-0.078-0.151-0.167-0.382-0.193
					c-0.819,0.082-2.487,0.54-3.898,0.574c-0.45,0.011-1.887-0.1-2.314-0.134c0.367,0.525,1.009,1.236,1.458,1.489
					c2.436,1.367,4.851-1.334,5.155-1.63c0.009-0.02,0.015-0.036,0.02-0.049C166.238-12.532,166.225-12.551,166.208-12.569z"/>
				<path opacity="0.8" fill="#A52B6F" d="M165.574-12.618c0.23,0.026,0.443,0.043,0.635,0.049
					c-0.012-0.012-0.023-0.022-0.036-0.033C166.053-12.646,165.846-12.645,165.574-12.618z"/>
				<path fill="#8A3F86" d="M165.574-12.618c0.23,0.026,0.443,0.043,0.635,0.049c-0.012-0.012-0.023-0.022-0.036-0.033
					C166.053-12.646,165.846-12.645,165.574-12.618z"/>
			</g>
			<g>
				<path fill="#9CA634" d="M158.122-10.093c0,0-0.058,0.079-0.204,0.161C158-9.973,158.122-10.041,158.122-10.093z"/>
				<path fill="#ADB931" d="M158.069-11.4c-0.036-0.137-1.215-0.475-1.435,0.109c-0.03,0.084,0.204,0.369,0.474,0.659
					c0.517,0.28,1.014,0.538,1.014,0.538C158.122-10.514,158.093-11.308,158.069-11.4z"/>
				<path fill="#ADB931" d="M157.108-10.631c-0.441-0.24-0.896-0.495-1.065-0.617c-0.754-0.543-1.255,0.981-0.787,1.146
					c1.572,0.555,2.337,0.352,2.662,0.17c-0.045,0.022-0.079,0.036-0.079,0.036S157.446-10.268,157.108-10.631z"/>
				<path fill="#9CA634" d="M158.122-10.093c0,0-0.497-0.258-1.014-0.538c0.338,0.363,0.73,0.735,0.73,0.735
					s0.034-0.014,0.079-0.036C158.064-10.014,158.122-10.093,158.122-10.093z"/>
			</g>
		</g>
	</g>
	<g>
		<path fill="#9BA534" d="M129.441,5.387c0.092-0.023,0.156-0.049,0.191-0.073l0.053-0.034l0.112,0.209
			c-0.004,0.004-0.011,0.01-0.021,0.019c-0.009,0.009-0.032,0.023-0.07,0.045c-0.037,0.022-0.079,0.041-0.126,0.057
			s-0.11,0.03-0.191,0.043c-0.081,0.014-0.168,0.021-0.263,0.021c-0.259,0-0.48-0.106-0.664-0.32
			c-0.183-0.215-0.273-0.477-0.273-0.787c0-0.31,0.091-0.57,0.273-0.785c0.184-0.214,0.405-0.321,0.664-0.321
			c0.211,0,0.379,0.048,0.508,0.142c0.127,0.096,0.191,0.249,0.191,0.463l-0.234,0.025c0-0.135-0.045-0.232-0.135-0.291
			c-0.091-0.06-0.2-0.089-0.33-0.089c-0.209,0-0.377,0.081-0.501,0.242c-0.125,0.163-0.188,0.368-0.188,0.614
			c0,0.235,0.066,0.438,0.199,0.605c0.134,0.168,0.297,0.253,0.489,0.253C129.244,5.423,129.348,5.412,129.441,5.387z"/>
		<path fill="#9BA534" d="M130.146,5.44c-0.155-0.154-0.233-0.342-0.233-0.563s0.078-0.408,0.233-0.563
			c0.154-0.154,0.342-0.231,0.563-0.231s0.408,0.077,0.563,0.231c0.155,0.155,0.232,0.343,0.232,0.563s-0.077,0.408-0.232,0.563
			c-0.154,0.155-0.342,0.232-0.563,0.232S130.3,5.595,130.146,5.44z M131.095,5.264c0.105-0.105,0.159-0.234,0.159-0.387
			c0-0.151-0.054-0.28-0.159-0.386c-0.106-0.106-0.235-0.16-0.387-0.16c-0.152,0-0.281,0.054-0.387,0.16
			c-0.106,0.105-0.159,0.234-0.159,0.386c0,0.152,0.053,0.281,0.159,0.387c0.105,0.106,0.234,0.159,0.387,0.159
			C130.86,5.423,130.989,5.371,131.095,5.264z"/>
		<path fill="#9BA534" d="M133.095,4.308c0.13,0.151,0.195,0.347,0.195,0.588v0.761h-0.25v-0.77c0-0.156-0.043-0.288-0.129-0.395
			c-0.087-0.106-0.206-0.161-0.36-0.161c-0.14,0-0.253,0.034-0.34,0.104c-0.087,0.068-0.131,0.17-0.131,0.305v0.917h-0.25V4.631
			c0-0.181-0.038-0.274-0.115-0.28l0.04-0.25c0.097,0.011,0.169,0.032,0.218,0.064c0.049,0.031,0.08,0.084,0.095,0.157
			c0.11-0.16,0.271-0.24,0.483-0.24C132.784,4.083,132.965,4.158,133.095,4.308z"/>
		<path fill="#9BA534" d="M133.643,3.625c-0.036-0.036-0.054-0.078-0.054-0.126c0-0.051,0.018-0.093,0.054-0.128
			c0.035-0.035,0.077-0.054,0.128-0.054c0.05,0,0.092,0.019,0.128,0.054c0.035,0.035,0.053,0.077,0.053,0.128
			c0,0.048-0.018,0.09-0.053,0.126c-0.036,0.037-0.078,0.055-0.128,0.055C133.72,3.68,133.678,3.663,133.643,3.625z M133.895,6.281
			h-0.249V4.098h0.249V6.281z"/>
		<path fill="#9BA534" d="M135.648,5.125c0,0.181,0.038,0.274,0.115,0.28l-0.04,0.249c-0.097-0.01-0.168-0.031-0.218-0.063
			c-0.049-0.032-0.08-0.085-0.095-0.157c-0.11,0.159-0.271,0.239-0.483,0.239c-0.232,0-0.414-0.075-0.544-0.226
			c-0.13-0.151-0.195-0.347-0.195-0.588V4.098h0.25v0.77c0,0.156,0.043,0.288,0.129,0.395c0.087,0.107,0.206,0.161,0.36,0.161
			c0.139,0,0.253-0.034,0.34-0.104c0.088-0.067,0.131-0.17,0.131-0.305V4.098h0.25V5.125z"/>
		<path fill="#9BA534" d="M137.355,4.308c0.13,0.151,0.195,0.347,0.195,0.588v0.761h-0.25v-0.77c0-0.156-0.043-0.288-0.129-0.395
			c-0.087-0.106-0.206-0.161-0.36-0.161c-0.14,0-0.253,0.034-0.34,0.104c-0.087,0.068-0.131,0.17-0.131,0.305v0.917h-0.25V4.631
			c0-0.181-0.038-0.274-0.115-0.28l0.041-0.25c0.096,0.011,0.167,0.032,0.217,0.064c0.049,0.031,0.08,0.084,0.095,0.157
			c0.11-0.16,0.271-0.24,0.483-0.24C137.043,4.083,137.225,4.158,137.355,4.308z"/>
		<path fill="#9BA534" d="M138.354,4.347v1.31h-0.249v-1.31h-0.343V4.098h0.343V3.599h0.249v0.499h0.344v0.249H138.354z"/>
		<path fill="#9BA534" d="M139.048,5.44c-0.154-0.154-0.232-0.342-0.232-0.563s0.078-0.408,0.232-0.563
			c0.155-0.154,0.343-0.231,0.563-0.231c0.221,0,0.408,0.077,0.563,0.231c0.154,0.155,0.232,0.343,0.232,0.563
			s-0.078,0.408-0.232,0.563c-0.155,0.155-0.343,0.232-0.563,0.232C139.391,5.672,139.204,5.595,139.048,5.44z M139.998,5.264
			c0.106-0.105,0.159-0.234,0.159-0.387c0-0.151-0.053-0.28-0.159-0.386c-0.105-0.106-0.234-0.16-0.387-0.16
			c-0.151,0-0.28,0.054-0.387,0.16c-0.105,0.105-0.158,0.234-0.158,0.386c0,0.152,0.053,0.281,0.158,0.387
			c0.106,0.106,0.235,0.159,0.387,0.159C139.763,5.423,139.892,5.371,139.998,5.264z"/>
		<path fill="#9BA534" d="M142.786,5.252c0.063,0.124,0.139,0.187,0.228,0.187v0.249c-0.102,0-0.19-0.026-0.265-0.079
			c-0.075-0.053-0.13-0.12-0.166-0.201l-0.187-0.396c-0.068,0.014-0.131,0.021-0.188,0.021l-0.529,0.003v0.62h-0.25V3.474h0.779
			c0.217,0,0.4,0.076,0.553,0.229c0.151,0.151,0.228,0.335,0.228,0.552c0,0.137-0.033,0.263-0.099,0.378s-0.154,0.209-0.267,0.279
			L142.786,5.252z M142.208,4.787c0.152,0,0.278-0.05,0.379-0.151c0.101-0.101,0.151-0.228,0.151-0.381
			c0-0.154-0.05-0.281-0.149-0.381s-0.227-0.15-0.381-0.15h-0.529v1.063H142.208z"/>
		<path fill="#9BA534" d="M143.506,5.436c-0.146-0.162-0.219-0.342-0.219-0.54c0-0.237,0.07-0.432,0.21-0.584
			c0.139-0.153,0.325-0.229,0.561-0.229c0.195,0,0.355,0.045,0.481,0.134c0.126,0.09,0.196,0.213,0.211,0.371
			c0.011,0.179-0.045,0.319-0.165,0.422c-0.121,0.104-0.292,0.164-0.515,0.183c-0.189,0.016-0.349,0.002-0.478-0.04
			c0.034,0.073,0.097,0.137,0.188,0.191c0.093,0.056,0.195,0.083,0.308,0.083c0.108,0,0.212-0.013,0.311-0.039
			s0.169-0.053,0.21-0.082l0.116,0.222c-0.014,0.01-0.033,0.023-0.062,0.041s-0.097,0.041-0.206,0.068
			c-0.109,0.028-0.232,0.043-0.369,0.043C143.846,5.679,143.652,5.598,143.506,5.436z M144.071,4.946
			c0.287-0.039,0.427-0.147,0.421-0.324c-0.006-0.093-0.048-0.165-0.125-0.215s-0.18-0.075-0.309-0.075
			c-0.177,0-0.313,0.063-0.407,0.186c-0.094,0.124-0.128,0.254-0.101,0.392C143.7,4.96,143.874,4.973,144.071,4.946z"/>
		<path fill="#9BA534" d="M145.898,4.904c0.104,0.082,0.156,0.186,0.156,0.311c0,0.127-0.053,0.234-0.159,0.324
			s-0.235,0.134-0.387,0.134c-0.204,0-0.37-0.037-0.499-0.112l0.091-0.23c0.107,0.064,0.233,0.098,0.377,0.1
			c0.086,0.005,0.16-0.012,0.225-0.049c0.064-0.038,0.099-0.087,0.103-0.147c0.002-0.059-0.025-0.108-0.082-0.15
			c-0.058-0.044-0.129-0.069-0.214-0.08c-0.156-0.017-0.286-0.066-0.39-0.15c-0.104-0.083-0.156-0.187-0.156-0.312
			c0-0.124,0.054-0.232,0.161-0.322c0.106-0.091,0.235-0.136,0.385-0.136c0.202,0,0.367,0.038,0.499,0.115l-0.091,0.23
			c-0.107-0.063-0.233-0.099-0.377-0.103c-0.085-0.002-0.16,0.016-0.225,0.053c-0.064,0.038-0.099,0.086-0.103,0.146
			c-0.003,0.059,0.025,0.108,0.082,0.15c0.058,0.041,0.129,0.068,0.214,0.081C145.665,4.772,145.793,4.822,145.898,4.904z"/>
		<path fill="#9BA534" d="M146.344,3.625c-0.036-0.036-0.054-0.078-0.054-0.126c0-0.051,0.018-0.093,0.054-0.128
			c0.035-0.035,0.078-0.054,0.128-0.054s0.092,0.019,0.128,0.054c0.035,0.035,0.053,0.077,0.053,0.128
			c0,0.048-0.018,0.09-0.053,0.126c-0.036,0.037-0.078,0.055-0.128,0.055S146.379,3.663,146.344,3.625z M146.596,5.657h-0.249V4.098
			h0.249V5.657z"/>
		<path fill="#9BA534" d="M148.352,5.125c0,0.183,0.038,0.275,0.115,0.28l-0.043,0.249c-0.138-0.017-0.229-0.057-0.272-0.121
			c-0.126,0.094-0.288,0.14-0.486,0.14c-0.124,0-0.237-0.023-0.339-0.069c-0.103-0.047-0.184-0.109-0.245-0.186
			c-0.062-0.077-0.108-0.161-0.142-0.25c-0.034-0.089-0.05-0.18-0.05-0.271c0-0.241,0.064-0.437,0.194-0.588
			c0.13-0.15,0.312-0.226,0.544-0.226c0.204,0,0.362,0.073,0.475,0.218V3.318h0.249V5.125z M147.287,5.258
			c0.098,0.109,0.224,0.165,0.379,0.165c0.173,0,0.318-0.046,0.438-0.138V4.74c0-0.135-0.045-0.236-0.133-0.305
			c-0.089-0.069-0.202-0.104-0.342-0.104c-0.153,0-0.273,0.055-0.358,0.161s-0.128,0.238-0.128,0.395
			C147.142,5.024,147.191,5.148,147.287,5.258z"/>
		<path fill="#9BA534" d="M148.867,5.436c-0.146-0.162-0.219-0.342-0.219-0.54c0-0.237,0.07-0.432,0.209-0.584
			c0.14-0.153,0.327-0.229,0.562-0.229c0.195,0,0.356,0.045,0.481,0.134c0.126,0.09,0.196,0.213,0.211,0.371
			c0.011,0.179-0.044,0.319-0.165,0.422c-0.121,0.104-0.292,0.164-0.515,0.183c-0.189,0.016-0.348,0.002-0.478-0.04
			c0.033,0.073,0.097,0.137,0.189,0.191c0.093,0.056,0.194,0.083,0.307,0.083c0.108,0,0.212-0.013,0.311-0.039
			s0.169-0.053,0.21-0.082l0.115,0.222c-0.012,0.01-0.032,0.023-0.06,0.041c-0.028,0.018-0.098,0.041-0.207,0.068
			c-0.108,0.028-0.231,0.043-0.369,0.043C149.207,5.679,149.012,5.598,148.867,5.436z M149.431,4.946
			c0.287-0.039,0.427-0.147,0.421-0.324c-0.006-0.093-0.048-0.165-0.125-0.215s-0.18-0.075-0.309-0.075
			c-0.177,0-0.312,0.063-0.407,0.186c-0.094,0.124-0.128,0.254-0.101,0.392C149.06,4.96,149.234,4.973,149.431,4.946z"/>
		<path fill="#9BA534" d="M151.734,4.308c0.13,0.151,0.195,0.347,0.195,0.588v0.761h-0.25v-0.77c0-0.156-0.043-0.288-0.129-0.395
			s-0.206-0.161-0.36-0.161c-0.14,0-0.253,0.034-0.34,0.104c-0.087,0.068-0.131,0.17-0.131,0.305v0.917h-0.249V4.631
			c0-0.181-0.039-0.274-0.115-0.28l0.04-0.25c0.096,0.011,0.167,0.032,0.217,0.064c0.049,0.031,0.08,0.084,0.095,0.157
			c0.11-0.16,0.271-0.24,0.483-0.24C151.423,4.083,151.604,4.158,151.734,4.308z"/>
		<path fill="#9BA534" d="M153.278,5.375c0.095-0.032,0.168-0.065,0.22-0.098l0.115,0.224c-0.004,0.005-0.011,0.011-0.021,0.02
			c-0.009,0.008-0.032,0.022-0.068,0.042s-0.076,0.037-0.121,0.051c-0.045,0.016-0.105,0.028-0.182,0.041
			c-0.075,0.013-0.156,0.019-0.241,0.019c-0.125,0-0.238-0.023-0.34-0.069c-0.103-0.047-0.184-0.109-0.244-0.186
			c-0.063-0.077-0.109-0.161-0.143-0.25s-0.05-0.18-0.05-0.271c0-0.241,0.064-0.437,0.194-0.588c0.13-0.15,0.312-0.226,0.544-0.226
			c0.202,0,0.366,0.053,0.493,0.159c0.127,0.105,0.19,0.24,0.19,0.405l-0.25,0.016c-0.006-0.115-0.049-0.198-0.129-0.251
			c-0.08-0.054-0.182-0.08-0.305-0.08c-0.141,0-0.257,0.054-0.349,0.16c-0.092,0.105-0.137,0.237-0.137,0.396
			c0,0.135,0.046,0.258,0.14,0.369c0.094,0.11,0.222,0.167,0.384,0.167C153.083,5.423,153.183,5.407,153.278,5.375z"/>
		<path fill="#9BA534" d="M153.916,3.625c-0.035-0.036-0.053-0.078-0.053-0.126c0-0.051,0.018-0.093,0.053-0.128
			s0.078-0.054,0.128-0.054s0.092,0.019,0.128,0.054c0.035,0.035,0.053,0.077,0.053,0.128c0,0.048-0.018,0.09-0.053,0.126
			c-0.036,0.037-0.078,0.055-0.128,0.055S153.951,3.663,153.916,3.625z M154.168,5.657h-0.25V4.098h0.25V5.657z"/>
		<path fill="#9BA534" d="M155.883,5.125c0,0.183,0.039,0.275,0.115,0.28l-0.04,0.249c-0.138-0.017-0.229-0.056-0.271-0.118
			c-0.138,0.091-0.287,0.137-0.449,0.137c-0.125,0-0.238-0.023-0.34-0.069c-0.102-0.047-0.184-0.109-0.245-0.186
			c-0.062-0.077-0.108-0.161-0.142-0.25s-0.05-0.18-0.05-0.271c0-0.241,0.064-0.437,0.194-0.588c0.13-0.15,0.313-0.226,0.544-0.226
			c0.202,0,0.366,0.053,0.493,0.159c0.127,0.105,0.19,0.24,0.19,0.405V5.125z M154.854,5.256c0.094,0.11,0.222,0.167,0.384,0.167
			s0.294-0.049,0.396-0.146l-0.003-0.614c-0.006-0.115-0.049-0.198-0.128-0.251c-0.079-0.054-0.18-0.08-0.303-0.08
			c-0.141,0-0.257,0.054-0.349,0.16c-0.092,0.105-0.138,0.237-0.138,0.396C154.713,5.022,154.76,5.145,154.854,5.256z"/>
		<path fill="#9BA534" d="M156.491,5.657h-0.249V3.318h0.249V5.657z"/>
	</g>
	<g>
		<path fill="#9BA534" d="M126.361-11.985c0.6-3.422,3.601-6.634,7.267-4.933c3.574,1.658,5.127,5.64,8.379,7.703
			c1.517,0.962,3.63,1.509,5.41,1.086c1.199-0.285,2.543-1.088,2.492-2.499c-0.041-1.165-1.052-2.575-2.38-2.146
			c-0.6,0.193-1.019,0.542-1.299,1.108c-0.271,0.548,0.155,1.124,0.721,1.163c0.399,0.028,0.743-0.065,1.105-0.229
			c0.45-0.202,0.035-0.415-0.275-0.274c-1.22,0.55-0.927-0.79-0.534-1.2c0.443-0.463,0.949-0.149,1.301,0.167
			c0.534,0.479,0.716,1.255,0.617,1.938c-0.288,1.983-2.989,1.83-4.395,1.486c-3.532-0.864-5.354-4.225-7.754-6.623
			c-2.152-2.152-5.087-3.369-7.942-1.847c-1.866,0.995-3.063,3.161-3.419,5.193C125.609-11.629,126.321-11.752,126.361-11.985
			L126.361-11.985z"/>
	</g>
	<g>
		<path fill="#9BA534" d="M139.625-11.354c0.812,0.955,1.838,1.764,3.157,1.561c0.954-0.148,2.042-0.955,2.167-1.951
			c0.143-1.149-1.352-1.047-1.976-0.675c-0.251,0.149-0.596,0.617-0.409,0.921c0.213,0.35,0.67,0.198,0.98,0.089
			c0.371-0.13,0.031-0.323-0.223-0.234c-0.076-0.077-0.15-0.153-0.226-0.229c0.097-0.394,0.408-0.54,0.935-0.44
			c0.318,0.14,0.37,0.516,0.334,0.813c-0.069,0.553-0.657,1.021-1.127,1.259c-1.197,0.604-2.375-0.489-3.091-1.333
			C140.019-11.726,139.481-11.525,139.625-11.354L139.625-11.354z"/>
	</g>
</g>
<g>
	<path fill="#6B6B24" d="M-14.637,73.072l-0.255-0.656h-0.839l-0.251,0.656h-0.27l0.826-2.124h0.24l0.825,2.124H-14.637z
		 M-14.972,72.181l-0.237-0.641l-0.102-0.315c-0.029,0.115-0.059,0.22-0.091,0.315l-0.24,0.641H-14.972z"/>
	<path fill="#6B6B24" d="M-12.716,71.579c0,0.216-0.074,0.382-0.221,0.497s-0.355,0.174-0.624,0.174h-0.243v0.822h-0.266v-2.115
		h0.56C-12.981,70.957-12.716,71.164-12.716,71.579z M-13.804,72.021h0.213c0.21,0,0.363-0.035,0.457-0.103
		c0.095-0.069,0.142-0.177,0.142-0.328c0-0.136-0.044-0.237-0.132-0.306c-0.088-0.066-0.225-0.102-0.411-0.102h-0.27V72.021z"/>
	<path fill="#6B6B24" d="M-11.023,73.072l-0.255-0.656h-0.839l-0.251,0.656h-0.27l0.826-2.124h0.24l0.824,2.124H-11.023z
		 M-11.358,72.181l-0.237-0.641l-0.102-0.315c-0.029,0.115-0.06,0.22-0.091,0.315l-0.24,0.641H-11.358z"/>
	<path fill="#6B6B24" d="M-10.19,72.199v0.873h-0.266v-2.115h0.583c0.262,0,0.457,0.051,0.582,0.149
		c0.126,0.101,0.189,0.251,0.189,0.451c0,0.28-0.142,0.47-0.424,0.567l0.58,0.947h-0.311l-0.512-0.873H-10.19z M-10.19,71.973h0.317
		c0.171,0,0.297-0.034,0.376-0.101c0.079-0.067,0.119-0.169,0.119-0.302s-0.04-0.23-0.12-0.291c-0.081-0.062-0.21-0.092-0.39-0.092
		h-0.302V71.973z"/>
	<path fill="#6B6B24" d="M-7.944,73.072h-0.268v-1.881h-0.661v-0.234h1.586v0.234h-0.657V73.072z"/>
	<path fill="#6B6B24" d="M-5.74,73.072l-0.255-0.656h-0.839l-0.252,0.656h-0.269l0.826-2.124h0.24l0.825,2.124H-5.74z
		 M-6.075,72.181l-0.237-0.641l-0.101-0.315c-0.029,0.115-0.06,0.22-0.091,0.315l-0.24,0.641H-6.075z"/>
	<path fill="#6B6B24" d="M-4.241,73.072l-0.697-1.854h-0.012c0.014,0.154,0.021,0.345,0.021,0.571v1.283h-0.246v-2.115h0.394
		l0.652,1.733h0.011l0.664-1.733h0.391v2.115h-0.263v-1.301c0-0.145,0.007-0.328,0.021-0.551h-0.012l-0.706,1.852H-4.241z"/>
	<path fill="#6B6B24" d="M-1.304,73.072h-1.182v-2.115h1.182v0.234H-2.22v0.66h0.862v0.232H-2.22v0.754h0.916V73.072z"/>
	<path fill="#6B6B24" d="M0.838,73.072H0.527l-1.132-1.756h-0.012l0.007,0.117c0.012,0.176,0.018,0.328,0.018,0.457v1.182h-0.247
		v-2.115h0.308l0.065,0.104l0.694,1.073l0.369,0.573H0.61c-0.002-0.021-0.005-0.105-0.011-0.248
		C0.593,72.317,0.59,72.215,0.59,72.15v-1.193h0.249V73.072z"/>
	<path fill="#6B6B24" d="M2.083,73.072H1.815v-1.881H1.154v-0.234h1.585v0.234H2.083V73.072z"/>
	<path fill="#6B6B24" d="M4.877,72.012c0,0.339-0.085,0.604-0.257,0.799c-0.171,0.193-0.411,0.291-0.718,0.291
		c-0.312,0-0.552-0.096-0.723-0.287c-0.17-0.189-0.255-0.459-0.255-0.805c0-0.345,0.084-0.612,0.254-0.803
		c0.169-0.188,0.412-0.283,0.727-0.283c0.307,0,0.545,0.096,0.716,0.289C4.792,71.404,4.877,71.672,4.877,72.012z M3.205,72.012
		c0,0.28,0.059,0.492,0.178,0.64c0.118,0.146,0.292,0.22,0.519,0.22c0.227,0,0.399-0.072,0.516-0.217
		c0.118-0.145,0.177-0.359,0.177-0.643s-0.058-0.496-0.175-0.639c-0.117-0.144-0.289-0.215-0.515-0.215
		c-0.229,0-0.404,0.073-0.522,0.218C3.264,71.521,3.205,71.733,3.205,72.012z"/>
	<path fill="#6B6B24" d="M6.544,72.507c0,0.184-0.066,0.329-0.2,0.436c-0.133,0.106-0.318,0.159-0.555,0.159
		c-0.251,0-0.445-0.033-0.582-0.1v-0.256c0.089,0.039,0.188,0.07,0.294,0.092c0.107,0.022,0.206,0.033,0.299,0.033
		c0.158,0,0.277-0.031,0.357-0.092c0.08-0.061,0.12-0.143,0.12-0.25c0-0.07-0.015-0.128-0.043-0.174
		c-0.029-0.045-0.077-0.087-0.146-0.127c-0.068-0.039-0.171-0.084-0.309-0.135c-0.196-0.07-0.335-0.155-0.419-0.252
		c-0.084-0.098-0.126-0.223-0.126-0.375c0-0.165,0.063-0.296,0.187-0.394c0.124-0.098,0.287-0.146,0.49-0.146
		c0.211,0,0.405,0.04,0.583,0.119l-0.082,0.229c-0.182-0.075-0.35-0.112-0.506-0.112c-0.126,0-0.224,0.027-0.295,0.08
		c-0.071,0.055-0.106,0.13-0.106,0.228c0,0.069,0.014,0.126,0.041,0.173c0.027,0.045,0.072,0.088,0.133,0.125
		c0.061,0.037,0.157,0.08,0.289,0.129c0.157,0.058,0.274,0.113,0.352,0.168c0.077,0.055,0.134,0.117,0.171,0.188
		C6.526,72.324,6.544,72.408,6.544,72.507z"/>
</g>
<g>
	<path fill="#9BA534" d="M14.601,73.072v-2.115h0.266v1.878h0.924v0.237H14.601z"/>
	<path fill="#9BA534" d="M17.97,72.012c0,0.339-0.086,0.604-0.257,0.799c-0.171,0.193-0.411,0.291-0.718,0.291
		c-0.311,0-0.552-0.096-0.723-0.287c-0.17-0.189-0.255-0.459-0.255-0.805c0-0.345,0.084-0.612,0.253-0.803
		c0.169-0.188,0.412-0.283,0.728-0.283c0.307,0,0.545,0.096,0.716,0.289C17.885,71.404,17.97,71.672,17.97,72.012z M16.298,72.012
		c0,0.28,0.059,0.492,0.178,0.64c0.119,0.146,0.292,0.22,0.519,0.22s0.399-0.072,0.517-0.217s0.177-0.359,0.177-0.643
		s-0.059-0.496-0.175-0.639c-0.117-0.144-0.289-0.215-0.515-0.215c-0.229,0-0.404,0.073-0.522,0.218
		C16.357,71.521,16.298,71.733,16.298,72.012z"/>
	<path fill="#9BA534" d="M19.343,71.162c-0.228,0-0.406,0.075-0.537,0.229c-0.13,0.151-0.195,0.36-0.195,0.624
		c0,0.272,0.063,0.483,0.189,0.632c0.126,0.148,0.306,0.223,0.54,0.223c0.15,0,0.32-0.029,0.508-0.085v0.231
		c-0.09,0.033-0.176,0.055-0.259,0.066c-0.083,0.014-0.179,0.02-0.287,0.02c-0.312,0-0.551-0.096-0.72-0.285
		c-0.168-0.189-0.252-0.457-0.252-0.805c0-0.218,0.04-0.408,0.121-0.572s0.198-0.291,0.352-0.379
		c0.154-0.09,0.335-0.134,0.543-0.134c0.224,0,0.418,0.042,0.584,0.124l-0.107,0.227C19.654,71.199,19.494,71.162,19.343,71.162z"/>
	<path fill="#9BA534" d="M21.636,73.072l-0.255-0.656h-0.839l-0.251,0.656h-0.27l0.826-2.124h0.24l0.824,2.124H21.636z
		 M21.301,72.181l-0.237-0.641l-0.102-0.315c-0.029,0.115-0.06,0.22-0.091,0.315l-0.241,0.641H21.301z"/>
	<path fill="#9BA534" d="M22.203,73.072v-2.115h0.266v1.878h0.924v0.237H22.203z"/>
	<path fill="#9BA534" d="M24.937,73.072h-1.182v-2.115h1.182v0.234h-0.916v0.66h0.862v0.232h-0.862v0.754h0.916V73.072z"/>
	<path fill="#9BA534" d="M26.602,72.507c0,0.184-0.066,0.329-0.2,0.436c-0.133,0.106-0.318,0.159-0.555,0.159
		c-0.25,0-0.444-0.033-0.582-0.1v-0.256c0.09,0.039,0.188,0.07,0.294,0.092c0.106,0.022,0.206,0.033,0.298,0.033
		c0.158,0,0.277-0.031,0.357-0.092s0.12-0.143,0.12-0.25c0-0.07-0.014-0.128-0.043-0.174c-0.029-0.045-0.078-0.087-0.146-0.127
		c-0.068-0.039-0.171-0.084-0.309-0.135c-0.196-0.07-0.335-0.155-0.419-0.252c-0.084-0.098-0.126-0.223-0.126-0.375
		c0-0.165,0.062-0.296,0.186-0.394c0.125-0.098,0.288-0.146,0.49-0.146c0.211,0,0.405,0.04,0.583,0.119l-0.083,0.229
		c-0.182-0.075-0.35-0.112-0.506-0.112c-0.125,0-0.224,0.027-0.294,0.08c-0.071,0.055-0.106,0.13-0.106,0.228
		c0,0.069,0.014,0.126,0.042,0.173c0.027,0.045,0.072,0.088,0.133,0.125s0.158,0.08,0.289,0.129
		c0.157,0.058,0.274,0.113,0.352,0.168c0.077,0.055,0.133,0.117,0.17,0.188C26.583,72.324,26.602,72.408,26.602,72.507z"/>
</g>
<g>
	<path fill="#C8C933" d="M41.385,70.957h0.279l0.476,1.357c0.061,0.172,0.105,0.325,0.133,0.461c0.024-0.121,0.07-0.276,0.135-0.467
		l0.474-1.352h0.282l-0.756,2.115H42.14L41.385,70.957z"/>
	<path fill="#C8C933" d="M44.045,73.072h-0.764v-0.153l0.248-0.057V71.17l-0.248-0.059v-0.154h0.764v0.154l-0.249,0.059v1.692
		l0.249,0.057V73.072z"/>
	<path fill="#C8C933" d="M46.149,71.994c0,0.35-0.096,0.615-0.286,0.801c-0.19,0.185-0.464,0.277-0.819,0.277h-0.588v-2.115h0.65
		c0.329,0,0.585,0.091,0.768,0.271S46.149,71.665,46.149,71.994z M45.869,72.003c0-0.269-0.067-0.473-0.2-0.61
		c-0.133-0.139-0.332-0.209-0.601-0.209h-0.347v1.66h0.287C45.582,72.844,45.869,72.564,45.869,72.003z"/>
	<path fill="#C8C933" d="M47.799,73.072h-1.182v-2.115h1.182v0.234h-0.915v0.66h0.862v0.232h-0.862v0.754h0.915V73.072z"/>
	<path fill="#C8C933" d="M50.112,72.012c0,0.339-0.087,0.604-0.258,0.799c-0.171,0.193-0.411,0.291-0.718,0.291
		c-0.312,0-0.554-0.096-0.724-0.287c-0.17-0.189-0.255-0.459-0.255-0.805c0-0.345,0.085-0.612,0.254-0.803
		c0.169-0.188,0.411-0.283,0.728-0.283c0.307,0,0.545,0.096,0.716,0.289C50.026,71.404,50.112,71.672,50.112,72.012z M48.438,72.012
		c0,0.28,0.06,0.492,0.179,0.64c0.118,0.146,0.291,0.22,0.52,0.22c0.227,0,0.399-0.072,0.517-0.217s0.176-0.359,0.176-0.643
		s-0.059-0.496-0.174-0.639c-0.118-0.144-0.289-0.215-0.516-0.215c-0.229,0-0.404,0.073-0.522,0.218
		C48.498,71.521,48.438,71.733,48.438,72.012z"/>
</g>
<g>
	<path fill="#D6C933" d="M63.534,70.957h0.604c0.283,0,0.488,0.042,0.613,0.127c0.127,0.084,0.19,0.217,0.19,0.396
		c0,0.125-0.034,0.229-0.104,0.311c-0.068,0.082-0.168,0.135-0.3,0.158v0.015c0.163,0.028,0.283,0.085,0.359,0.17
		c0.076,0.084,0.116,0.197,0.116,0.337c0,0.189-0.065,0.336-0.194,0.443c-0.129,0.105-0.311,0.158-0.541,0.158h-0.744V70.957z
		 M63.8,71.857h0.391c0.166,0,0.286-0.027,0.361-0.08c0.076-0.053,0.113-0.141,0.113-0.266c0-0.116-0.042-0.199-0.124-0.25
		c-0.083-0.051-0.214-0.078-0.392-0.078H63.8V71.857z M63.8,72.08v0.767h0.427c0.17,0,0.295-0.032,0.378-0.099
		c0.081-0.066,0.122-0.165,0.122-0.298c0-0.126-0.043-0.22-0.13-0.28s-0.217-0.09-0.391-0.09H63.8z"/>
	<path fill="#D6C933" d="M65.725,72.199v0.873h-0.266v-2.115h0.584c0.262,0,0.455,0.051,0.581,0.149
		c0.125,0.101,0.188,0.251,0.188,0.451c0,0.28-0.141,0.47-0.423,0.567l0.58,0.947H66.66l-0.514-0.873H65.725z M65.725,71.973h0.318
		c0.171,0,0.296-0.034,0.375-0.101c0.079-0.067,0.119-0.169,0.119-0.302s-0.041-0.23-0.12-0.291c-0.08-0.062-0.21-0.092-0.389-0.092
		h-0.304V71.973z"/>
	<path fill="#D6C933" d="M69.148,72.012c0,0.339-0.085,0.604-0.257,0.799c-0.171,0.193-0.41,0.291-0.718,0.291
		c-0.312,0-0.553-0.096-0.723-0.287c-0.171-0.189-0.255-0.459-0.255-0.805c0-0.345,0.083-0.612,0.253-0.803
		c0.17-0.188,0.412-0.283,0.728-0.283c0.307,0,0.545,0.096,0.717,0.289C69.063,71.404,69.148,71.672,69.148,72.012z M67.476,72.012
		c0,0.28,0.06,0.492,0.178,0.64c0.118,0.146,0.292,0.22,0.52,0.22c0.227,0,0.398-0.072,0.517-0.217s0.176-0.359,0.176-0.643
		s-0.058-0.496-0.175-0.639c-0.116-0.144-0.288-0.215-0.515-0.215c-0.229,0-0.404,0.073-0.522,0.218
		C67.536,71.521,67.476,71.733,67.476,72.012z"/>
	<path fill="#D6C933" d="M70.521,71.162c-0.228,0-0.406,0.075-0.537,0.229c-0.13,0.151-0.194,0.36-0.194,0.624
		c0,0.272,0.063,0.483,0.189,0.632c0.126,0.148,0.306,0.223,0.539,0.223c0.151,0,0.319-0.029,0.508-0.085v0.231
		c-0.089,0.033-0.176,0.055-0.259,0.066c-0.083,0.014-0.179,0.02-0.287,0.02c-0.312,0-0.552-0.096-0.72-0.285
		s-0.251-0.457-0.251-0.805c0-0.218,0.039-0.408,0.12-0.572c0.08-0.164,0.197-0.291,0.352-0.379c0.153-0.09,0.334-0.134,0.544-0.134
		c0.223,0,0.417,0.042,0.583,0.124l-0.106,0.227C70.833,71.199,70.672,71.162,70.521,71.162z"/>
	<path fill="#D6C933" d="M73.105,73.072h-0.267v-0.986h-1.085v0.986h-0.266v-2.115h0.266v0.895h1.085v-0.895h0.267V73.072z"/>
	<path fill="#D6C933" d="M75.292,70.957v1.368c0,0.241-0.072,0.431-0.219,0.569c-0.145,0.138-0.347,0.207-0.605,0.207
		c-0.255,0-0.453-0.07-0.594-0.209c-0.142-0.14-0.212-0.33-0.212-0.572v-1.363h0.268v1.372c0,0.173,0.046,0.306,0.138,0.4
		s0.23,0.142,0.417,0.142c0.174,0,0.309-0.047,0.402-0.141s0.141-0.229,0.141-0.405v-1.368H75.292z"/>
	<path fill="#D6C933" d="M76.115,72.199v0.873h-0.267v-2.115h0.584c0.262,0,0.455,0.051,0.582,0.149
		c0.126,0.101,0.188,0.251,0.188,0.451c0,0.28-0.141,0.47-0.424,0.567l0.58,0.947h-0.311l-0.513-0.873H76.115z M76.115,71.973h0.317
		c0.172,0,0.296-0.034,0.376-0.101c0.079-0.067,0.119-0.169,0.119-0.302s-0.041-0.23-0.121-0.291
		c-0.079-0.062-0.21-0.092-0.389-0.092h-0.303V71.973z"/>
	<path fill="#D6C933" d="M78.874,73.072h-1.182v-2.115h1.182v0.234h-0.915v0.66h0.861v0.232h-0.861v0.754h0.915V73.072z"/>
</g>
<g>
	<path fill="#E8C933" d="M89.842,71.162c-0.228,0-0.406,0.075-0.536,0.229c-0.131,0.151-0.195,0.36-0.195,0.624
		c0,0.272,0.063,0.483,0.189,0.632c0.127,0.148,0.306,0.223,0.539,0.223c0.15,0,0.319-0.029,0.508-0.085v0.231
		c-0.089,0.033-0.176,0.055-0.259,0.066c-0.083,0.014-0.179,0.02-0.286,0.02c-0.313,0-0.552-0.096-0.721-0.285
		c-0.168-0.189-0.252-0.457-0.252-0.805c0-0.218,0.041-0.408,0.121-0.572s0.198-0.291,0.352-0.379
		c0.153-0.09,0.334-0.134,0.543-0.134c0.224,0,0.418,0.042,0.585,0.124l-0.107,0.227C90.154,71.199,89.995,71.162,89.842,71.162z"/>
	<path fill="#E8C933" d="M92.625,72.012c0,0.339-0.085,0.604-0.257,0.799c-0.171,0.193-0.41,0.291-0.718,0.291
		c-0.313,0-0.553-0.096-0.723-0.287c-0.17-0.189-0.255-0.459-0.255-0.805c0-0.345,0.084-0.612,0.254-0.803
		c0.169-0.188,0.411-0.283,0.726-0.283c0.308,0,0.546,0.096,0.717,0.289C92.541,71.404,92.625,71.672,92.625,72.012z M90.954,72.012
		c0,0.28,0.059,0.492,0.178,0.64c0.119,0.146,0.291,0.22,0.52,0.22c0.227,0,0.398-0.072,0.516-0.217
		c0.118-0.145,0.177-0.359,0.177-0.643s-0.058-0.496-0.175-0.639c-0.117-0.144-0.288-0.215-0.516-0.215
		c-0.229,0-0.402,0.073-0.521,0.218C91.012,71.521,90.954,71.733,90.954,72.012z"/>
	<path fill="#E8C933" d="M94.77,73.072h-0.313l-1.132-1.756h-0.012l0.007,0.117c0.012,0.176,0.019,0.328,0.019,0.457v1.182h-0.246
		v-2.115h0.308l0.064,0.104l0.695,1.073l0.368,0.573h0.012c-0.001-0.021-0.005-0.105-0.012-0.248
		c-0.006-0.142-0.008-0.244-0.008-0.309v-1.193h0.249V73.072z"/>
	<path fill="#E8C933" d="M96.014,73.072h-0.268v-1.881h-0.662v-0.234h1.585v0.234h-0.655V73.072z"/>
	<path fill="#E8C933" d="M98.216,73.072l-0.255-0.656h-0.838l-0.252,0.656h-0.269l0.826-2.124h0.24l0.823,2.124H98.216z
		 M97.882,72.181l-0.236-0.641l-0.102-0.315c-0.029,0.115-0.06,0.22-0.091,0.315l-0.241,0.641H97.882z"/>
	<path fill="#E8C933" d="M99.661,71.162c-0.228,0-0.407,0.075-0.537,0.229c-0.13,0.151-0.195,0.36-0.195,0.624
		c0,0.272,0.063,0.483,0.19,0.632c0.126,0.148,0.305,0.223,0.538,0.223c0.152,0,0.32-0.029,0.508-0.085v0.231
		c-0.089,0.033-0.175,0.055-0.258,0.066c-0.084,0.014-0.18,0.02-0.287,0.02c-0.312,0-0.551-0.096-0.719-0.285
		c-0.169-0.189-0.253-0.457-0.253-0.805c0-0.218,0.04-0.408,0.121-0.572c0.08-0.164,0.197-0.291,0.352-0.379
		c0.153-0.09,0.334-0.134,0.543-0.134c0.224,0,0.418,0.042,0.584,0.124l-0.106,0.227C99.971,71.199,99.812,71.162,99.661,71.162z"/>
	<path fill="#E8C933" d="M101.296,73.072h-0.268v-1.881h-0.661v-0.234h1.586v0.234h-0.657V73.072z"/>
	<path fill="#E8C933" d="M104.091,72.012c0,0.339-0.085,0.604-0.257,0.799c-0.171,0.193-0.41,0.291-0.718,0.291
		c-0.312,0-0.552-0.096-0.722-0.287c-0.171-0.189-0.257-0.459-0.257-0.805c0-0.345,0.085-0.612,0.255-0.803
		c0.169-0.188,0.411-0.283,0.727-0.283c0.307,0,0.545,0.096,0.715,0.289C104.006,71.404,104.091,71.672,104.091,72.012z
		 M102.419,72.012c0,0.28,0.059,0.492,0.178,0.64c0.119,0.146,0.292,0.22,0.52,0.22c0.227,0,0.398-0.072,0.516-0.217
		s0.178-0.359,0.178-0.643s-0.06-0.496-0.176-0.639c-0.116-0.144-0.288-0.215-0.515-0.215c-0.229,0-0.403,0.073-0.522,0.218
		C102.478,71.521,102.419,71.733,102.419,72.012z"/>
</g>
<g>
	<path fill="#6B6B24" d="M92.708-0.794C92.695-1.084,92.175-1.077,92-1.07c-9.365,0.579-18.744,0.521-28.123,0.521
		c-0.377,0-1.189,0.188-1.115,0.716c1.105,7.771-0.737,15.808,0.068,23.633c0.022,0.211,0.35,0.276,0.506,0.279
		c5.369,0.225,10.676,0.137,16.01-0.563c0.816-0.105,1.314-1.127,0.197-0.984c-1.764,0.235-3.526,0.389-5.289,0.498
		c-0.172-1.227,0.033-2.512,0.044-3.734c0.001-0.218-1.618,0-1.62,0.433c-0.008,1.107-0.178,2.266-0.085,3.383
		c-1.563,0.068-3.131,0.105-4.71,0.103c-4.988-0.021-3.584-4.307-3.433-7.932c0.066-1.625,0.155-3.291,0.224-4.974
		c1.378-0.211,2.756-0.041,4.16-0.088c1.17-0.034,2.344-0.096,3.514-0.164c0.084,1.502,0.121,3.005-0.048,4.511
		c-0.08,0.726,1.56,0.446,1.628-0.171c0.025-0.225,0.035-0.442,0.05-0.667c2.707-0.232,5.446-0.208,8.156-0.382
		c0.799-0.055,1.343-0.968,0.222-0.899c-2.769,0.184-5.563,0.149-8.325,0.402c0.099-3.094-0.427-6.16-0.288-9.26
		c0.035-0.743-1.6-0.443-1.628,0.17c-0.083,1.836,0.069,3.662,0.187,5.492c-1.154,0.062-2.308,0.123-3.465,0.15
		c-1.438,0.034-2.748-0.068-4.129,0.143c0.109-3.059,0.111-6.143-0.243-9.096c6.368,0,12.731,0.007,19.097-0.153
		c2.869-0.072,7.564-1.809,7.662,2.773c0.052,2.518-0.262,5.039-0.418,7.55c-0.049,0.739-0.072,1.482-0.08,2.218
		c-1.078,0.04-2.158,0.081-3.232,0.007c-0.115-0.906,0.029-1.803,0.041-2.719c0.009-0.807-1.628-0.531-1.637,0.143
		c-0.012,1.121-0.213,2.201,0.009,3.315c0.046,0.228,0.327,0.316,0.52,0.337c1.429,0.153,2.868,0.068,4.303,0.021
		c0.027,4.606,0.55,9.219,0.32,13.825c-0.026,0.504-2.403,0.272-3.854,0.361c-1.875,0.115-2.646,1.021-2.646-1.479
		c0-1.393,0.086-2.786,0.188-4.173c0.052-0.719-1.584-0.419-1.627,0.181c-0.158,2.184-0.214,4.367-0.154,6.558
		c0.008,0.276,0.541,0.304,0.709,0.276c2.664-0.477,5.383-0.439,8.068-0.709c0.273-0.027,0.893-0.218,0.912-0.582
		c0.25-4.984-0.169-9.938-0.27-14.926C92.279,8.564,92.958,3.931,92.708-0.794z"/>
</g>
<g>
	<g>
		<path fill="#595D30" d="M-35,1.39c-0.015-0.187-0.276-0.257-0.396-0.262c-15.202-0.389-30.442-0.56-45.646,0.008
			c-0.225,0.007-0.676,0.209-0.704,0.53c-0.846,10.212-0.147,20.204,0,30.409c0.007,0.26,0.186,0.38,0.398,0.38
			c1.09,0.021,2.177,0.008,3.268-0.022c0.265-0.011,0.827-0.127,0.864-0.546c0.147-1.676,0.168-3.304,0.155-4.997
			c-0.006-0.673-1.26-0.379-1.256,0.157c0.013,1.915,0.63,4.489-1.465,4.502c-1.226,0.011-0.752-2.059-0.799-3.427
			c-0.175-5.228-0.469-10.434-0.451-15.671c0.014-2.994,0.177-5.987,0.382-8.971c0.176-2.554,4.196-1.583,5.875-1.621
			c4.253-0.086,8.509-0.112,12.763-0.116c8.375-0.019,16.75,0.078,25.125,0.28c1.521,0.034,1.491,16.486,1.55,18.407
			c0.098,3.162,0.134,6.326,0.153,9.482c0.012,1.581-2.05,1.907-2.021,0.457c0.027-1.314,0.067-2.602,0.044-3.921
			c0-0.276-0.182-0.351-0.396-0.379c-3.007-0.42-6.122-0.391-9.23-0.26c-0.15-0.257-0.857-0.175-1.349,0.057
			c-2.119,0.103-4.23,0.225-6.288,0.253c-7.062,0.108-14.18,0.403-21.233-0.115c-0.525-0.038-1.317,0.855-0.467,0.919
			c2.534,0.187,5.079,0.265,7.624,0.292c-0.021,0.037-0.05,0.069-0.056,0.107c-0.189,1.648-0.085,3.331-0.083,4.982
			c0.003,0.418,1.881,0.078,1.88-0.59c-0.004-1.486-0.098-3.01,0.041-4.49c2.751,0,5.503-0.051,8.251-0.108
			c-0.063,0.064-0.104,0.136-0.114,0.206c-0.188,1.648-0.087,3.331-0.081,4.982c0,0.418,1.88,0.078,1.88-0.59
			c-0.006-1.531-0.11-3.108,0.05-4.639c0.954-0.019,1.909-0.038,2.859-0.048c1.741-0.025,3.481-0.058,5.224-0.088
			c-0.138,1.779-0.042,3.59-0.038,5.364c0.003,0.418,1.881,0.078,1.879-0.59c-0.004-1.577-0.095-3.204-0.007-4.792
			c1.472-0.02,2.941-0.041,4.412-0.046c1.092-0.006,2.182-0.002,3.274,0.026c1.628,0.052,0.676,2.985,0.641,4.637
			c-0.003,0.255,0.191,0.385,0.397,0.381c1.157-0.013,2.308-0.055,3.461-0.153c0.202-0.022,0.703-0.213,0.703-0.54
			C-33.944,21.264-34.333,11.323-35,1.39z"/>
	</g>
	<g>
		<path fill="#595D30" d="M-65.991,5.079c-0.002-0.44-1.255-0.164-1.253,0.389c0.004,1.657-4.032,0.91-4.956,0.904
			c-1.74-0.007-3.481-0.023-5.218-0.109c-0.46-0.025-1.338,0.775-0.493,0.812c3.203,0.16,6.411,0.061,9.614,0.201
			C-67.02,7.331-65.988,6.787-65.991,5.079z"/>
	</g>
	<g>
		<path fill="#595D30" d="M-58.072,6.684c6.077-0.193,12.154-0.119,18.229-0.144c0.28,0,0.889-0.163,0.869-0.603
			c0.023-0.567-0.069-1.121-0.277-1.643c-0.125-0.5-1.375-0.098-1.251,0.392c0.13,0.34,0.201,0.691,0.239,1.042
			c-5.771,0.016-11.544-0.038-17.315,0.149C-58.027,5.889-58.912,6.715-58.072,6.684z"/>
	</g>
	<g>
		<path fill="#595D30" d="M-78.103,12.133c3.258,0.162,6.522,0.06,9.783,0.2c1.275,0.06,2.332-0.475,2.329-2.198
			c-0.002-0.44-1.255-0.163-1.253,0.396c0.002,1.654-4.138,0.905-5.06,0.899c-1.768-0.01-3.538-0.021-5.306-0.107
			C-78.073,11.296-78.949,12.093-78.103,12.133z"/>
	</g>
	<g>
		<path fill="#595D30" d="M-58.072,11.749c6.077-0.193,12.154-0.127,18.229-0.149c0.28,0,0.889-0.16,0.869-0.604
			c0.039-0.577-0.055-1.126-0.277-1.645c-0.142-0.5-1.385-0.078-1.251,0.396c0.144,0.336,0.212,0.687,0.249,1.042
			c-5.777,0.014-11.553-0.038-17.325,0.145C-58.027,10.95-58.912,11.775-58.072,11.749z"/>
	</g>
	<g>
		<path fill="#595D30" d="M-67.244,15.59c0.004,1.657-4.058,0.909-4.98,0.903c-1.749-0.013-3.496-0.023-5.24-0.112
			c-0.463-0.022-1.34,0.769-0.494,0.814c3.218,0.16,6.438,0.059,9.654,0.201c1.276,0.056,2.316-0.486,2.313-2.2
			C-65.993,14.761-67.247,15.028-67.244,15.59z"/>
	</g>
	<g>
		<path fill="#595D30" d="M-58.072,16.805c6.077-0.193,12.154-0.118,18.229-0.144c0.28-0.004,0.889-0.162,0.869-0.605
			c0.107-0.625-0.008-1.168-0.348-1.644c-0.237-0.481-1.44,0.011-1.255,0.393c0.228,0.313,0.345,0.664,0.375,1.045
			c-5.792,0.016-11.587-0.037-17.376,0.15C-58.027,16.013-58.912,16.837-58.072,16.805z"/>
	</g>
	<g>
		<path fill="#595D30" d="M-68.304,22.453c1.276,0.061,2.316-0.485,2.313-2.195c-0.002-0.441-1.255-0.165-1.253,0.395
			c0.004,1.655-4.058,0.904-4.98,0.904c-1.749-0.016-3.496-0.027-5.24-0.111c-0.463-0.026-1.34,0.77-0.494,0.81
			C-74.739,22.416-71.52,22.31-68.304,22.453z"/>
	</g>
	<g>
		<path fill="#595D30" d="M-58.072,21.87c6.077-0.193,12.154-0.126,18.229-0.149c0.28,0,0.889-0.16,0.869-0.604
			c0.107-0.625-0.008-1.174-0.348-1.645c-0.237-0.486-1.44,0.015-1.255,0.396c0.228,0.314,0.345,0.667,0.375,1.044
			c-5.792,0.014-11.587-0.038-17.376,0.146C-58.027,21.07-58.912,21.894-58.072,21.87z"/>
	</g>
</g>
<g>
	<g>
		<path fill="#C8C933" d="M72.174-38.748c-2.206-8.999-14.342-13.718-23.509-10.395C40.793-47.557,35.97-43.01,35.041-33.98
			c-1.092,10.635,10.818,15.493,21.185,14.657C67.333-20.219,74.488-29.308,72.174-38.748z M52.108-20.562
			c-6.979-0.646-12.1-4.551-13.755-10.379c-1.105-3.872,0.325-7.799,2.075-11.313c1.565-3.151,3.988-4.768,6.939-5.58
			c0.55,0.031,1.285-0.055,1.637-0.229c0.172-0.079,0.344-0.146,0.515-0.221c1.642-0.245,3.397-0.323,5.229-0.327
			c0.387,0,1.041-0.225,1.506-0.477c6.605,1.127,12.051,7.523,13.35,12.811C71.912-26.879,62.024-19.654,52.108-20.562z"/>
	</g>
	<g>
		<path fill="#C8C933" d="M51.931-39.907c-0.893-0.454-3.838-1.183-3.779,0.489c0,0.02,0.026,0.036,0.049,0.055
			c-0.094,0.079-0.167,0.158-0.167,0.252c-0.019,3.226-0.271,6.436-0.095,9.653c0.037,0.074,0.1,0.118,0.186,0.134
			c1.836,0.544,3.975-0.418,5.594-1.097c2.508-1.041,5.066-2.188,6.983-3.986c0.077-0.075,0.136-0.197,0.019-0.28
			C57.976-36.556,54.955-38.377,51.931-39.907z"/>
	</g>
</g>
<g>
	<path fill="#9BA534" d="M-11.082-36.085c0.01-0.73,0.034-1.468,0.08-2.201c0.155-2.492,0.466-4.993,0.414-7.492
		c-0.096-4.547-4.755-2.823-7.6-2.752c-6.318,0.159-12.633,0.152-18.952,0.152c0.352,2.931,0.348,5.991,0.242,9.026l-0.034,0.757
		c-0.068,1.67-0.156,3.323-0.223,4.936c-0.149,3.598-1.542,7.851,3.408,7.871c1.567,0.003,3.122-0.034,4.672-0.102l1.649-0.081
		c1.751-0.108,3.499-0.261,5.25-0.494c1.107-0.142,0.614,0.872-0.198,0.978c-5.292,0.692-10.558,0.78-15.886,0.558
		c-0.154-0.004-0.478-0.067-0.5-0.277c-0.801-7.766,1.027-15.741-0.069-23.452c-0.075-0.524,0.732-0.71,1.107-0.71
		c9.306,0,18.611,0.058,27.905-0.517c0.176-0.007,0.691-0.014,0.705,0.274c0.249,4.689-0.424,9.287-0.334,13.959
		c0.101,4.949,0.517,9.865,0.269,14.811c-0.019,0.362-0.632,0.552-0.904,0.578c-2.666,0.268-5.363,0.23-8.005,0.703
		c-0.167,0.027-0.697,0-0.705-0.273c-0.059-2.174-0.003-4.341,0.154-6.508c0.042-0.595,1.667-0.893,1.614-0.18
		c-0.103,1.376-0.186,2.759-0.186,4.142c0,2.481,0.766,1.582,2.625,1.468c1.44-0.088,3.798,0.142,3.823-0.358
		c0.23-4.571-0.289-9.148-0.317-13.72L-11.082-36.085z"/>
</g>
<g>
	<path fill="#E8C933" d="M94.869,63.109c0.836-0.5,1.132-0.828,0.809-1.817c-0.218-0.667-0.855-1.593-1.679-1.398
		c-2.972,0.7-1.319,4.205-0.271,5.856c1.074,1.693,3.352,3.603,5.193,1.755c0.731-0.734-0.397-2.051-0.988-2.397
		c-0.148-0.086-0.369-0.045-0.521,0.019c-1.333,0.573-2.099-0.343-2.571-1.56c-0.087-0.223-0.555-0.092-0.47,0.127
		c0.33,0.851,0.972,1.92,1.906,2.183c0.162,0.045,0.376-0.005,0.522-0.069c0.194-0.077,0.383-0.166,0.564-0.27
		c0.218,0.083,0.437,0.167,0.654,0.25c0.626,0.534,0.528,1.215-0.297,2.041c-1.948,0.674-3.503-2.078-4.232-3.422
		c-0.454-0.84-0.754-1.752-0.728-2.711c0.065-2.441,4.238-0.285,1.893,1.115C94.383,62.974,94.631,63.251,94.869,63.109
		L94.869,63.109z"/>
</g>
<g>
	<g>
		<path fill="#D6C933" d="M37.802,5.72c-0.013-0.11-0.154-0.154-0.233-0.186C33.655,4,29.741,1.167,25.487,2.714
			c-2.845,1.028-5.556,2.924-8.592,1.855c-2.672-0.937-5.26-2.295-7.703-3.716C8.947,0.711,8.155,0.828,8.158,1.211
			c0.044,8.291,0.138,16.575,0.079,24.863c-0.006,0.531,1.151,0.308,1.154-0.123c0.057-7.964-0.025-15.924-0.072-23.888
			c3.376,2.015,7.621,4.568,11.391,3.27c1.082-0.368,2.131-0.846,3.188-1.286c3.075-1.276,4.901-1.138,7.907,0.072
			c1.421,0.575,2.811,1.21,4.235,1.77c1.443,0.563,1.012,6.281,1.069,7.521c0.208,4.951,0.113,9.916-0.079,14.868
			c-0.129,3.448-2.198,1.867-4.493,0.813c-1.182-0.547-2.32-1.357-3.546-1.798c-1.745-0.629-2.852-0.353-4.493,0.446
			c-2.56,1.251-4.829,3.401-8.074,2.516c-2.44-0.667-4.864-1.849-7.156-2.931c-0.38-0.176-1.424,0.358-0.905,0.604
			c3.471,1.629,8.573,4.804,12.425,2.694c1.685-0.921,3.326-1.914,5.059-2.757c1.538-0.748,4.329,1.112,5.788,1.823
			c1.783,0.868,3.65,1.622,5.618,1.893c0.229,0.031,0.78-0.119,0.795-0.421C38.472,22.672,38.506,14.193,37.802,5.72z"/>
	</g>
	<g>
		<path fill="#D6C933" d="M28.059,3.928c-0.273,3.22,0.069,6.564,0.208,9.79c0.17,3.968-0.173,7.923,0.113,11.888
			c0.016,0.204,0.594,0.082,0.578-0.154c-0.258-3.502,0.028-6.979-0.075-10.481c-0.11-3.66-0.557-7.445-0.245-11.105
			C28.656,3.61,28.075,3.72,28.059,3.928z"/>
	</g>
	<g>
		<path fill="#D6C933" d="M18.533,6.921c-0.509,2.905-0.003,6.152,0.01,9.099c0.028,4.486,0.072,8.973,0.072,13.463
			c0,0.163,0.578,0.057,0.578-0.157c0-3.98,0.01-7.955-0.053-11.932c-0.054-3.354-0.616-7.237-0.028-10.551
			C19.149,6.638,18.57,6.735,18.533,6.921z"/>
	</g>
	<g>
		<path fill="#D6C933" d="M11.186,6.908c-0.11,2.849,0.088,5.76,0.339,8.596c0.003,0.054,0.076,0.088,0.12,0.104
			c1.531,0.595,3.015,1.758,4.662,1.946c0.126,0.013,0.384-0.057,0.393-0.22c0.129-2.421-0.286-4.845-0.418-7.263
			c-0.022-0.384,0.019-2.163-0.453-2.314c-1.327-0.415-2.55-1.044-3.804-1.623c-0.211-0.097-0.723,0.189-0.45,0.314
			c0.896,0.415,3.719,1.261,3.977,2.283c0.538,2.135,0.343,4.612,0.579,6.803c0.17,1.588-0.129,1.459-1.254,1.013
			c-0.664-0.265-2.748-0.858-2.839-1.887c-0.227-2.54-0.368-5.263-0.271-7.803C11.78,6.572,11.198,6.669,11.186,6.908z"/>
	</g>
	<g>
		<path fill="#D6C933" d="M21.617,17.544c0.191-0.374,1.226-0.556,1.6-0.701c0.877-0.326,1.61-0.949,2.512-1.21
			c0.346-0.098,0.798-0.601,0.154-0.594c-0.314,0.006-0.547,0.068-0.764,0.213c-0.871,0.347-1.645,0.874-2.525,1.204
			c-0.594,0.224-1.72,0.45-2.047,1.072C20.296,18.007,21.447,17.865,21.617,17.544z"/>
	</g>
	<g>
		<path fill="#D6C933" d="M21.652,20.66c0.185-0.35,1.339-0.56,1.704-0.708c0.739-0.285,1.38-0.782,2.125-1.059
			c0.135-0.032,0.258-0.076,0.339-0.129c0.312-0.136,0.648-0.484,0.073-0.481c-0.331,0.003-0.598,0.072-0.833,0.248
			c-0.905,0.362-1.72,0.909-2.641,1.245c-0.594,0.217-1.588,0.443-1.905,1.054C20.378,21.088,21.485,20.987,21.652,20.66z"/>
	</g>
	<g>
		<path fill="#D6C933" d="M21.629,24.112c0.164-0.314,1.286-0.535,1.61-0.657c0.761-0.28,1.415-0.771,2.163-1.072
			c0.142-0.016,0.271-0.063,0.365-0.139c0.572-0.169,0.613-0.776-0.054-0.77c-0.251,0-0.431,0.072-0.6,0.191
			c-0.877,0.346-1.654,0.887-2.541,1.217c-0.645,0.239-1.688,0.449-2.037,1.116C20.24,24.564,21.41,24.54,21.629,24.112z"/>
	</g>
	<g>
		<path fill="#D6C933" d="M34.08,7.773c-0.962-0.349-1.805-0.962-2.77-1.298c-0.135-0.113-0.261-0.132-0.487-0.135
			c-0.167-0.003-1.173,0.424-0.695,0.563c0.06,0.016,0.113,0.044,0.169,0.063c0.016,0.013,0.019,0.025,0.057,0.05
			c0.06,0.076,0.183,0.098,0.321,0.088c0.676,0.292,1.289,0.705,1.968,1c0.475,0.208,1.691,0.383,1.949,0.874
			c0.188,0.358,1.295-0.028,1.15-0.314C35.469,8.141,34.592,7.958,34.08,7.773z"/>
	</g>
	<g>
		<path fill="#D6C933" d="M30.25,10.203c0.035,0.013,0.066,0.031,0.104,0.044c0.003,0,0.003,0,0.003,0.006
			c0.079,0.091,0.213,0.129,0.358,0.129c0.704,0.299,1.333,0.745,2.05,1.028c0.49,0.191,1.613,0.371,1.871,0.861
			c0.21,0.403,1.324,0.013,1.06-0.487c-0.268-0.513-1.245-0.72-1.739-0.902c-0.94-0.339-1.761-0.928-2.697-1.27
			c-0.123-0.101-0.251-0.145-0.462-0.148C30.461,9.461,29.552,10.008,30.25,10.203z"/>
	</g>
	<g>
		<path fill="#D6C933" d="M33.963,14.215c-0.934-0.34-1.751-0.918-2.675-1.267c-0.132-0.11-0.264-0.148-0.484-0.151
			c-0.314-0.003-1.242,0.506-0.56,0.701c0.031,0.01,0.06,0.025,0.094,0.034c0.013,0.01,0.006,0.01,0.019,0.022
			c0.075,0.088,0.208,0.119,0.352,0.119c0.717,0.302,1.361,0.755,2.094,1.044c0.421,0.164,1.566,0.353,1.789,0.776
			c0.223,0.431,1.349,0.066,1.15-0.311C35.441,14.604,34.526,14.423,33.963,14.215z"/>
	</g>
	<g>
		<path fill="#D6C933" d="M25.871,24.489c-0.32,0.007-0.556,0.051-0.773,0.211c-0.868,0.343-1.635,0.877-2.518,1.204
			c-0.625,0.232-1.698,0.452-2.037,1.104c-0.283,0.537,0.877,0.469,1.084,0.078c0.173-0.333,1.264-0.544,1.61-0.673
			c0.742-0.276,1.39-0.761,2.125-1.056c0.173-0.022,0.336-0.082,0.44-0.173C26.16,25.036,26.487,24.483,25.871,24.489z"/>
	</g>
</g>
</svg>
