<?xml version="1.0" encoding="utf-8"?>
<!-- Generator: Adobe Illustrator 16.0.0, SVG Export Plug-In . SVG Version: 6.00 Build 0)  -->
<!DOCTYPE svg PUBLIC "-//W3C//DTD SVG 1.1//EN" "http://www.w3.org/Graphics/SVG/1.1/DTD/svg11.dtd">
<svg version="1.1" id="Capa_1" xmlns="http://www.w3.org/2000/svg" xmlns:xlink="http://www.w3.org/1999/xlink" x="0px" y="0px"
	 width="43.051px" height="33.002px" viewBox="0 0 43.051 33.002" enable-background="new 0 0 43.051 33.002" xml:space="preserve">
<g>
	<g>
		<g>
			<path fill="#595D30" d="M143.932-14.131h-1.171v-5.607l-2.154,4.226h-1.169l-2.143-4.202v5.584h-1.171v-8.193h1.171l2.728,5.36
				l2.738-5.36h1.171V-14.131z"/>
			<path fill="#595D30" d="M150.276-16.425c0,0.226,0.006,0.406,0.018,0.538c0.011,0.133,0.053,0.262,0.123,0.386
				c0.069,0.126,0.168,0.188,0.293,0.188l-0.188,1.171c-0.601-0.07-0.988-0.211-1.16-0.421c-0.507,0.327-1.018,0.491-1.533,0.491
				c-0.468,0-0.894-0.088-1.275-0.263c-0.382-0.177-0.689-0.408-0.919-0.697c-0.23-0.289-0.408-0.602-0.532-0.937
				c-0.126-0.335-0.188-0.675-0.188-1.018c0-0.906,0.244-1.642,0.731-2.207s1.169-0.849,2.043-0.849
				c0.765,0,1.387,0.208,1.867,0.626c0.479,0.417,0.72,0.938,0.72,1.563V-16.425z M149.105-15.735l-0.012-2.037
				c-0.046-0.733-0.515-1.1-1.404-1.1c-0.438,0-0.812,0.171-1.124,0.515c-0.312,0.344-0.468,0.788-0.468,1.334
				c0,0.461,0.156,0.872,0.468,1.235c0.313,0.362,0.733,0.544,1.264,0.544C148.353-15.244,148.778-15.408,149.105-15.735z"/>
			<path fill="#595D30" d="M156.89-16.425c0,0.218,0.008,0.397,0.023,0.538s0.057,0.271,0.123,0.393
				c0.066,0.12,0.162,0.181,0.287,0.181l-0.188,1.171c-0.601-0.07-0.99-0.211-1.17-0.421c-0.484,0.327-1.054,0.491-1.71,0.491
				c-0.468,0-0.894-0.088-1.276-0.263c-0.382-0.177-0.688-0.408-0.919-0.697c-0.229-0.289-0.407-0.602-0.532-0.937
				c-0.124-0.335-0.187-0.675-0.187-1.018c0-0.906,0.243-1.642,0.731-2.207c0.487-0.565,1.169-0.849,2.043-0.849
				c0.647,0,1.183,0.233,1.604,0.702v-3.57h1.17V-16.425z M153.015-15.782c0.329,0.359,0.742,0.538,1.241,0.538
				c0.563,0,1.05-0.152,1.464-0.456v-1.687c0-0.507-0.148-0.882-0.444-1.122c-0.297-0.243-0.684-0.363-1.159-0.363
				c-0.483,0-0.87,0.176-1.159,0.526s-0.433,0.792-0.433,1.322C152.524-16.554,152.688-16.14,153.015-15.782z"/>
			<path fill="#595D30" d="M161.76-18.872h-0.246c-0.477,0-0.862,0.12-1.159,0.363c-0.297,0.24-0.444,0.615-0.444,1.122v3.255
				h-1.171v-3.547c0-0.227-0.006-0.406-0.018-0.538c-0.012-0.133-0.053-0.262-0.123-0.387c-0.069-0.125-0.168-0.188-0.292-0.188
				l0.187-1.17c0.414,0.046,0.723,0.123,0.925,0.229c0.203,0.104,0.344,0.282,0.422,0.532c0.39-0.562,0.948-0.843,1.674-0.843h0.246
				V-18.872z"/>
			<path fill="#595D30" d="M162.796-21.542c-0.16-0.163-0.24-0.351-0.24-0.562c0-0.227,0.078-0.418,0.233-0.574
				c0.157-0.155,0.349-0.233,0.574-0.233c0.227,0,0.417,0.078,0.573,0.233c0.156,0.156,0.234,0.348,0.234,0.574
				c0,0.211-0.08,0.398-0.239,0.562c-0.161,0.164-0.35,0.246-0.568,0.246S162.955-21.377,162.796-21.542z M163.948-14.131h-1.17
				v-5.853h1.17V-14.131z"/>
			<path fill="#595D30" d="M170.762-18.813c-0.125,0-0.223,0.062-0.294,0.188c-0.069,0.123-0.11,0.255-0.122,0.392
				c-0.012,0.136-0.018,0.313-0.018,0.532v3.84c0,0.608-0.235,1.108-0.709,1.499c-0.472,0.39-1.066,0.585-1.785,0.585
				c-0.936,0-1.626-0.227-2.071-0.679l0.69-0.902c0.305,0.273,0.765,0.41,1.381,0.41c0.383,0,0.699-0.096,0.948-0.287
				c0.251-0.191,0.375-0.399,0.375-0.626v-0.363c-0.358,0.102-0.784,0.152-1.275,0.152c-0.617,0-1.153-0.152-1.61-0.456
				c-0.456-0.305-0.788-0.671-0.994-1.101c-0.207-0.43-0.311-0.878-0.311-1.347c0-0.905,0.243-1.643,0.731-2.212
				c0.488-0.57,1.169-0.854,2.043-0.854c0.663,0,1.222,0.159,1.674,0.479c0.171-0.21,0.558-0.352,1.158-0.421L170.762-18.813z
				 M169.157-15.466v-2.294c-0.063-0.742-0.534-1.111-1.416-1.111c-0.43,0-0.802,0.174-1.118,0.521
				c-0.315,0.347-0.474,0.794-0.474,1.341c0,0.46,0.155,0.87,0.468,1.229c0.313,0.359,0.733,0.538,1.265,0.538
				C168.334-15.244,168.76-15.318,169.157-15.466z"/>
			<path fill="#595D30" d="M176.871-16.425c0,0.226,0.007,0.406,0.019,0.538c0.011,0.133,0.053,0.262,0.122,0.386
				c0.07,0.126,0.169,0.188,0.293,0.188l-0.188,1.171c-0.601-0.07-0.986-0.211-1.158-0.421c-0.508,0.327-1.019,0.491-1.534,0.491
				c-0.468,0-0.893-0.088-1.276-0.263c-0.382-0.177-0.688-0.408-0.919-0.697c-0.229-0.289-0.407-0.602-0.532-0.937
				s-0.188-0.675-0.188-1.018c0-0.906,0.244-1.642,0.731-2.207c0.488-0.565,1.169-0.849,2.043-0.849
				c0.766,0,1.388,0.208,1.868,0.626c0.479,0.417,0.719,0.938,0.719,1.563V-16.425z M175.701-15.735l-0.012-2.037
				c-0.047-0.733-0.515-1.1-1.405-1.1c-0.437,0-0.812,0.171-1.123,0.515c-0.313,0.344-0.469,0.788-0.469,1.334
				c0,0.461,0.156,0.872,0.469,1.235c0.312,0.362,0.733,0.544,1.264,0.544C174.948-15.244,175.374-15.408,175.701-15.735z"/>
			<path fill="#595D30" d="M179.342-14.131h-1.171v-8.779h1.171V-14.131z"/>
		</g>
	</g>
	<g>
		<g>
			<polygon fill="#595D30" points="136.124,-23.799 139.911,-23.799 139.911,-24.896 137.22,-24.896 137.22,-25.844 139.4,-25.844 
				139.4,-26.905 137.22,-26.931 137.22,-27.836 139.911,-27.836 139.911,-28.932 136.124,-28.932 			"/>
			<rect x="140.759" y="-29.268" fill="#595D30" width="1.097" height="5.469"/>
		</g>
	</g>
	<g>
		<g>
			<g>
				
					<linearGradient id="SVGID_1_" gradientUnits="userSpaceOnUse" x1="156.4111" y1="-25.918" x2="166.8016" y2="-36.4284" gradientTransform="matrix(0.9961 0.0881 -0.0881 0.9961 10.8725 -11.5396)">
					<stop  offset="0" style="stop-color:#D0932E"/>
					<stop  offset="0.2592" style="stop-color:#E0C12F"/>
					<stop  offset="0.9799" style="stop-color:#ECDE34"/>
				</linearGradient>
				<path fill="url(#SVGID_1_)" d="M166.065-26.047c-0.039-0.102-0.063-0.169-0.054-0.167c1.126,0.276,2.544-0.131,3.532-0.666
					c1.187-0.643,2.499-0.811,3.602-1.668c0.656-0.513,1.39-0.963,2.029-1.512c0.32-0.275,0.629-0.577,0.877-0.922
					c0.244-0.339,0.355-0.77,0.653-1.068c0.289-0.292,0.66-0.561,1.062-0.643c0.646-0.131,1.557,0.082,2.024,0.566
					c0.243,0.252,0.368,0.597,0.633,0.846c0.09,0.087,1.144,0.4,1.237,0.312c-0.666,0.213-1.006-0.007-1.545,0.427
					c-1.073,0.861-1.989,3.104-2.674,4.244c-1.656,2.762-4.675,4.765-7.891,3.428C167.984-23.522,166.714-24.417,166.065-26.047z"/>
			</g>
			<g>
				<path opacity="0.9" fill="#B84688" d="M174.252-28.801c0.011,0.004,0.021,0.009,0.029,0.013
					c-0.016-0.014-0.039-0.033-0.068-0.058c-1.14-0.591-4.579-3.071-4.942-4.093c-0.165-0.467,0.082-1.025,0.504-1.575
					c-0.324-0.712-0.529-1.237-0.529-1.237s-2.118,3.047-1.571,4.475c0.88,0.471,2.179,1.125,3.356,1.563
					C172.602-29.13,173.911-29.059,174.252-28.801z"/>
				<path opacity="0.9" fill="#B84688" d="M174.213-28.846c0.08,0.042,0.15,0.074,0.206,0.097c0,0-1.094-1.203-1.605-3.585
					c-0.499-2.324-0.322-4.568-0.322-4.568s-1.783,1.17-2.717,2.389c0.316,0.696,0.746,1.57,1.209,2.312
					C171.776-30.934,173.761-29.227,174.213-28.846z"/>
				<path opacity="0.9" fill="#7A3260" d="M169.271-32.939c0.363,1.021,3.803,3.502,4.942,4.093
					c-0.452-0.381-2.437-2.088-3.229-3.356c-0.463-0.741-0.893-1.615-1.209-2.312C169.353-33.964,169.105-33.406,169.271-32.939z"/>
				<path opacity="0.9" fill="#B84688" d="M173.653-28.817c-1.862-0.21-4.818-1.059-5.79-2.145
					c-0.082-0.093-0.145-0.198-0.189-0.315c-0.631-0.337-1.047-0.58-1.047-0.58s-0.022,1.783,1.066,3.336
					c0.428,0.034,1.864,0.145,2.314,0.134C171.419-28.421,172.834-28.735,173.653-28.817z"/>
				<path opacity="0.9" fill="#7A3260" d="M173.652-28.817c0.61,0.005,0.725,0.063,0.599,0.017c-0.34-0.259-1.649-0.33-3.221-0.914
					c-1.178-0.438-2.477-1.092-3.356-1.563c0.045,0.117,0.107,0.223,0.189,0.315C168.835-29.875,171.791-29.027,173.652-28.817z"/>
				<path opacity="0.8" fill="#77497D" d="M174.281-28.789c0.017,0.014,0.025,0.021,0.025,0.021
					c-0.007-0.001-0.013-0.002-0.019-0.001c0.017,0.018,0.029,0.037,0.038,0.058c0.009-0.021,0.013-0.033,0.013-0.033
					C174.325-28.762,174.306-28.776,174.281-28.789z"/>
				<path opacity="0.9" fill="#B84688" d="M169.794-27.048c-0.363-0.366-0.746-0.854-1.113-1.378
					c-1.509-0.12-2.742-0.443-2.742-0.443s0.782,3.677,4.979,3.291c2.851-0.262,3.165-2.52,3.389-3.083
					C174.002-28.366,171.154-25.678,169.794-27.048z"/>
				<path opacity="0.8" fill="#A52B6F" d="M174.288-28.768c0.006-0.001,0.012,0,0.019,0.001c0,0-0.009-0.008-0.025-0.021
					c-0.009-0.004-0.019-0.009-0.029-0.013C174.265-28.791,174.276-28.78,174.288-28.768z"/>
				<path opacity="0.8" fill="#77497D" d="M174.288-28.768c0.006-0.001,0.012,0,0.019,0.001c0,0-0.009-0.008-0.025-0.021
					c-0.009-0.004-0.019-0.009-0.029-0.013C174.265-28.791,174.276-28.78,174.288-28.768z"/>
				<path opacity="0.97" fill="#77497D" d="M174.288-28.768c-0.191-0.006-0.404-0.022-0.635-0.049
					c-0.819,0.082-2.234,0.396-3.646,0.43c-0.45,0.011-0.899-0.006-1.327-0.039c0.367,0.523,0.75,1.012,1.113,1.378
					c1.36,1.37,4.208-1.317,4.513-1.613c0.009-0.02,0.015-0.036,0.02-0.049C174.317-28.731,174.305-28.75,174.288-28.768z"/>
				<path opacity="0.9" fill="#7A3260" d="M174.288-28.768c-0.075-0.078-0.151-0.167-0.382-0.193
					c-0.819,0.082-2.487,0.54-3.898,0.574c-0.45,0.011-1.887-0.1-2.314-0.134c0.367,0.525,1.009,1.236,1.458,1.489
					c2.436,1.367,4.851-1.334,5.155-1.63c0.009-0.02,0.015-0.036,0.02-0.049C174.317-28.731,174.305-28.75,174.288-28.768z"/>
				<path opacity="0.8" fill="#A52B6F" d="M173.653-28.817c0.23,0.026,0.443,0.043,0.635,0.049
					c-0.012-0.012-0.023-0.022-0.036-0.033C174.133-28.845,173.926-28.844,173.653-28.817z"/>
				<path fill="#8A3F86" d="M173.653-28.817c0.23,0.026,0.443,0.043,0.635,0.049c-0.012-0.012-0.023-0.022-0.036-0.033
					C174.133-28.845,173.926-28.844,173.653-28.817z"/>
			</g>
			<g>
				<path fill="#9CA634" d="M166.201-26.292c0,0-0.058,0.079-0.204,0.161C166.08-26.172,166.201-26.24,166.201-26.292z"/>
				<path fill="#ADB931" d="M166.148-27.599c-0.036-0.137-1.215-0.475-1.435,0.109c-0.03,0.084,0.204,0.369,0.474,0.659
					c0.517,0.28,1.014,0.538,1.014,0.538C166.201-26.713,166.173-27.507,166.148-27.599z"/>
				<path fill="#ADB931" d="M165.188-26.831c-0.441-0.24-0.896-0.495-1.065-0.617c-0.754-0.543-1.255,0.981-0.787,1.146
					c1.572,0.555,2.337,0.352,2.662,0.17c-0.045,0.022-0.079,0.036-0.079,0.036S165.525-26.467,165.188-26.831z"/>
				<path fill="#9CA634" d="M166.201-26.292c0,0-0.497-0.258-1.014-0.538c0.338,0.363,0.73,0.735,0.73,0.735
					s0.034-0.014,0.079-0.036C166.144-26.213,166.201-26.292,166.201-26.292z"/>
			</g>
		</g>
	</g>
	<g>
		<path fill="#9BA534" d="M137.521-10.812c0.092-0.023,0.156-0.049,0.191-0.073l0.053-0.034l0.112,0.209
			c-0.004,0.004-0.011,0.01-0.021,0.019c-0.009,0.009-0.032,0.023-0.07,0.045c-0.037,0.022-0.079,0.041-0.126,0.057
			s-0.11,0.03-0.191,0.043c-0.081,0.014-0.168,0.021-0.263,0.021c-0.259,0-0.48-0.106-0.664-0.32
			c-0.183-0.215-0.273-0.477-0.273-0.787c0-0.31,0.091-0.57,0.273-0.785c0.184-0.214,0.405-0.321,0.664-0.321
			c0.211,0,0.379,0.048,0.508,0.142c0.127,0.096,0.191,0.249,0.191,0.463l-0.234,0.025c0-0.135-0.045-0.232-0.135-0.291
			c-0.091-0.06-0.2-0.089-0.33-0.089c-0.209,0-0.377,0.081-0.501,0.242c-0.125,0.163-0.188,0.368-0.188,0.614
			c0,0.235,0.066,0.438,0.199,0.605c0.134,0.168,0.297,0.253,0.489,0.253C137.323-10.776,137.428-10.788,137.521-10.812z"/>
		<path fill="#9BA534" d="M138.226-10.759c-0.155-0.154-0.233-0.342-0.233-0.563s0.078-0.408,0.233-0.563
			c0.154-0.154,0.342-0.231,0.563-0.231s0.408,0.077,0.563,0.231c0.155,0.155,0.232,0.343,0.232,0.563s-0.077,0.408-0.232,0.563
			c-0.154,0.155-0.342,0.232-0.563,0.232S138.38-10.604,138.226-10.759z M139.175-10.935c0.105-0.105,0.159-0.234,0.159-0.387
			c0-0.151-0.054-0.28-0.159-0.386c-0.106-0.106-0.235-0.16-0.387-0.16c-0.152,0-0.281,0.054-0.387,0.16
			c-0.106,0.105-0.159,0.234-0.159,0.386c0,0.152,0.053,0.281,0.159,0.387c0.105,0.106,0.234,0.159,0.387,0.159
			C138.939-10.776,139.068-10.829,139.175-10.935z"/>
		<path fill="#9BA534" d="M141.175-11.891c0.13,0.151,0.195,0.347,0.195,0.588v0.761h-0.25v-0.77c0-0.156-0.043-0.288-0.129-0.395
			c-0.087-0.106-0.206-0.161-0.36-0.161c-0.14,0-0.253,0.034-0.34,0.104c-0.087,0.068-0.131,0.17-0.131,0.305v0.917h-0.25v-1.025
			c0-0.181-0.038-0.274-0.115-0.28l0.04-0.25c0.097,0.011,0.169,0.032,0.218,0.064c0.049,0.031,0.08,0.084,0.095,0.157
			c0.11-0.16,0.271-0.24,0.483-0.24C140.863-12.117,141.045-12.042,141.175-11.891z"/>
		<path fill="#9BA534" d="M141.723-12.574c-0.036-0.036-0.054-0.078-0.054-0.126c0-0.051,0.018-0.093,0.054-0.128
			c0.035-0.035,0.077-0.054,0.128-0.054c0.05,0,0.092,0.019,0.128,0.054c0.035,0.035,0.053,0.077,0.053,0.128
			c0,0.048-0.018,0.09-0.053,0.126c-0.036,0.037-0.078,0.055-0.128,0.055C141.8-12.519,141.758-12.537,141.723-12.574z
			 M141.975-9.918h-0.249v-2.183h0.249V-9.918z"/>
		<path fill="#9BA534" d="M143.728-11.075c0,0.181,0.038,0.274,0.115,0.28l-0.04,0.249c-0.097-0.01-0.168-0.031-0.218-0.063
			c-0.049-0.032-0.08-0.085-0.095-0.157c-0.11,0.159-0.271,0.239-0.483,0.239c-0.232,0-0.414-0.075-0.544-0.226
			c-0.13-0.151-0.195-0.347-0.195-0.588v-0.761h0.25v0.77c0,0.156,0.043,0.288,0.129,0.395c0.087,0.107,0.206,0.161,0.36,0.161
			c0.139,0,0.253-0.034,0.34-0.104c0.088-0.067,0.131-0.17,0.131-0.305v-0.917h0.25V-11.075z"/>
		<path fill="#9BA534" d="M145.435-11.891c0.13,0.151,0.195,0.347,0.195,0.588v0.761h-0.25v-0.77c0-0.156-0.043-0.288-0.129-0.395
			c-0.087-0.106-0.206-0.161-0.36-0.161c-0.14,0-0.253,0.034-0.34,0.104c-0.087,0.068-0.131,0.17-0.131,0.305v0.917h-0.25v-1.025
			c0-0.181-0.038-0.274-0.115-0.28l0.041-0.25c0.096,0.011,0.167,0.032,0.217,0.064c0.049,0.031,0.08,0.084,0.095,0.157
			c0.11-0.16,0.271-0.24,0.483-0.24C145.123-12.117,145.305-12.042,145.435-11.891z"/>
		<path fill="#9BA534" d="M146.434-11.852v1.31h-0.249v-1.31h-0.343v-0.249h0.343V-12.6h0.249v0.499h0.344v0.249H146.434z"/>
		<path fill="#9BA534" d="M147.128-10.759c-0.154-0.154-0.232-0.342-0.232-0.563s0.078-0.408,0.232-0.563
			c0.155-0.154,0.343-0.231,0.563-0.231c0.221,0,0.408,0.077,0.563,0.231c0.154,0.155,0.232,0.343,0.232,0.563
			s-0.078,0.408-0.232,0.563c-0.155,0.155-0.343,0.232-0.563,0.232C147.471-10.527,147.283-10.604,147.128-10.759z M148.077-10.935
			c0.106-0.105,0.159-0.234,0.159-0.387c0-0.151-0.053-0.28-0.159-0.386c-0.105-0.106-0.234-0.16-0.387-0.16
			c-0.151,0-0.28,0.054-0.387,0.16c-0.105,0.105-0.158,0.234-0.158,0.386c0,0.152,0.053,0.281,0.158,0.387
			c0.106,0.106,0.235,0.159,0.387,0.159C147.843-10.776,147.972-10.829,148.077-10.935z"/>
		<path fill="#9BA534" d="M150.865-10.947c0.063,0.124,0.139,0.187,0.228,0.187v0.249c-0.102,0-0.19-0.026-0.265-0.079
			c-0.075-0.053-0.13-0.12-0.166-0.201l-0.187-0.396c-0.068,0.014-0.131,0.021-0.188,0.021l-0.529,0.003v0.62h-0.25v-2.183h0.779
			c0.217,0,0.4,0.076,0.553,0.229c0.151,0.151,0.228,0.335,0.228,0.552c0,0.137-0.033,0.263-0.099,0.378s-0.154,0.209-0.267,0.279
			L150.865-10.947z M150.288-11.413c0.152,0,0.278-0.05,0.379-0.151c0.101-0.101,0.151-0.228,0.151-0.381
			c0-0.154-0.05-0.281-0.149-0.381s-0.227-0.15-0.381-0.15h-0.529v1.063H150.288z"/>
		<path fill="#9BA534" d="M151.586-10.763c-0.146-0.162-0.219-0.342-0.219-0.54c0-0.237,0.07-0.432,0.21-0.584
			c0.139-0.153,0.325-0.229,0.561-0.229c0.195,0,0.355,0.045,0.481,0.134c0.126,0.09,0.196,0.213,0.211,0.371
			c0.011,0.179-0.045,0.319-0.165,0.422c-0.121,0.104-0.292,0.164-0.515,0.183c-0.189,0.016-0.349,0.002-0.478-0.04
			c0.034,0.073,0.097,0.137,0.188,0.191c0.093,0.056,0.195,0.083,0.308,0.083c0.108,0,0.212-0.013,0.311-0.039
			s0.169-0.053,0.21-0.082l0.116,0.222c-0.014,0.01-0.033,0.023-0.062,0.041s-0.097,0.041-0.206,0.068
			c-0.109,0.028-0.232,0.043-0.369,0.043C151.926-10.52,151.731-10.601,151.586-10.763z M152.15-11.253
			c0.287-0.039,0.427-0.147,0.421-0.324c-0.006-0.093-0.048-0.165-0.125-0.215s-0.18-0.075-0.309-0.075
			c-0.177,0-0.313,0.063-0.407,0.186c-0.094,0.124-0.128,0.254-0.101,0.392C151.779-11.239,151.953-11.226,152.15-11.253z"/>
		<path fill="#9BA534" d="M153.978-11.295c0.104,0.082,0.156,0.186,0.156,0.311c0,0.127-0.053,0.234-0.159,0.324
			s-0.235,0.134-0.387,0.134c-0.204,0-0.37-0.037-0.499-0.112l0.091-0.23c0.107,0.064,0.233,0.098,0.377,0.1
			c0.086,0.005,0.16-0.012,0.225-0.049c0.064-0.038,0.099-0.087,0.103-0.147c0.002-0.059-0.025-0.108-0.082-0.15
			c-0.058-0.044-0.129-0.069-0.214-0.08c-0.156-0.017-0.286-0.066-0.39-0.15c-0.104-0.083-0.156-0.187-0.156-0.312
			c0-0.124,0.054-0.232,0.161-0.322c0.106-0.091,0.235-0.136,0.385-0.136c0.202,0,0.367,0.038,0.499,0.115l-0.091,0.23
			c-0.107-0.063-0.233-0.099-0.377-0.103c-0.085-0.002-0.16,0.016-0.225,0.053c-0.064,0.038-0.099,0.086-0.103,0.146
			c-0.003,0.059,0.025,0.108,0.082,0.15c0.058,0.041,0.129,0.068,0.214,0.081C153.744-11.427,153.873-11.377,153.978-11.295z"/>
		<path fill="#9BA534" d="M154.424-12.574c-0.036-0.036-0.054-0.078-0.054-0.126c0-0.051,0.018-0.093,0.054-0.128
			c0.035-0.035,0.078-0.054,0.128-0.054s0.092,0.019,0.128,0.054c0.035,0.035,0.053,0.077,0.053,0.128
			c0,0.048-0.018,0.09-0.053,0.126c-0.036,0.037-0.078,0.055-0.128,0.055S154.459-12.537,154.424-12.574z M154.676-10.542h-0.249
			v-1.559h0.249V-10.542z"/>
		<path fill="#9BA534" d="M156.432-11.075c0,0.183,0.038,0.275,0.115,0.28l-0.043,0.249c-0.138-0.017-0.229-0.057-0.272-0.121
			c-0.126,0.094-0.288,0.14-0.486,0.14c-0.124,0-0.237-0.023-0.339-0.069c-0.103-0.047-0.184-0.109-0.245-0.186
			c-0.062-0.077-0.108-0.161-0.142-0.25c-0.034-0.089-0.05-0.18-0.05-0.271c0-0.241,0.064-0.437,0.194-0.588
			c0.13-0.15,0.312-0.226,0.544-0.226c0.204,0,0.362,0.073,0.475,0.218v-0.982h0.249V-11.075z M155.366-10.941
			c0.098,0.109,0.224,0.165,0.379,0.165c0.173,0,0.318-0.046,0.438-0.138v-0.546c0-0.135-0.045-0.236-0.133-0.305
			c-0.089-0.069-0.202-0.104-0.342-0.104c-0.153,0-0.273,0.055-0.358,0.161s-0.128,0.238-0.128,0.395
			C155.222-11.175,155.271-11.051,155.366-10.941z"/>
		<path fill="#9BA534" d="M156.946-10.763c-0.146-0.162-0.219-0.342-0.219-0.54c0-0.237,0.07-0.432,0.209-0.584
			c0.14-0.153,0.327-0.229,0.562-0.229c0.195,0,0.356,0.045,0.481,0.134c0.126,0.09,0.196,0.213,0.211,0.371
			c0.011,0.179-0.044,0.319-0.165,0.422c-0.121,0.104-0.292,0.164-0.515,0.183c-0.189,0.016-0.348,0.002-0.478-0.04
			c0.033,0.073,0.097,0.137,0.189,0.191c0.093,0.056,0.194,0.083,0.307,0.083c0.108,0,0.212-0.013,0.311-0.039
			s0.169-0.053,0.21-0.082l0.115,0.222c-0.012,0.01-0.032,0.023-0.06,0.041c-0.028,0.018-0.098,0.041-0.207,0.068
			c-0.108,0.028-0.231,0.043-0.369,0.043C157.286-10.52,157.092-10.601,156.946-10.763z M157.511-11.253
			c0.287-0.039,0.427-0.147,0.421-0.324c-0.006-0.093-0.048-0.165-0.125-0.215s-0.18-0.075-0.309-0.075
			c-0.177,0-0.312,0.063-0.407,0.186c-0.094,0.124-0.128,0.254-0.101,0.392C157.14-11.239,157.313-11.226,157.511-11.253z"/>
		<path fill="#9BA534" d="M159.813-11.891c0.13,0.151,0.195,0.347,0.195,0.588v0.761h-0.25v-0.77c0-0.156-0.043-0.288-0.129-0.395
			s-0.206-0.161-0.36-0.161c-0.14,0-0.253,0.034-0.34,0.104c-0.087,0.068-0.131,0.17-0.131,0.305v0.917h-0.249v-1.025
			c0-0.181-0.039-0.274-0.115-0.28l0.04-0.25c0.096,0.011,0.167,0.032,0.217,0.064c0.049,0.031,0.08,0.084,0.095,0.157
			c0.11-0.16,0.271-0.24,0.483-0.24C159.503-12.117,159.684-12.042,159.813-11.891z"/>
		<path fill="#9BA534" d="M161.357-10.825c0.095-0.032,0.168-0.065,0.22-0.098l0.115,0.224c-0.004,0.005-0.011,0.011-0.021,0.02
			c-0.009,0.008-0.032,0.022-0.068,0.042s-0.076,0.037-0.121,0.051c-0.045,0.016-0.105,0.028-0.182,0.041
			c-0.075,0.013-0.156,0.019-0.241,0.019c-0.125,0-0.238-0.023-0.34-0.069c-0.103-0.047-0.184-0.109-0.244-0.186
			c-0.063-0.077-0.109-0.161-0.143-0.25s-0.05-0.18-0.05-0.271c0-0.241,0.064-0.437,0.194-0.588c0.13-0.15,0.312-0.226,0.544-0.226
			c0.202,0,0.366,0.053,0.493,0.159c0.127,0.105,0.19,0.24,0.19,0.405l-0.25,0.016c-0.006-0.115-0.049-0.198-0.129-0.251
			c-0.08-0.054-0.182-0.08-0.305-0.08c-0.141,0-0.257,0.054-0.349,0.16c-0.092,0.105-0.137,0.237-0.137,0.396
			c0,0.135,0.046,0.258,0.14,0.369c0.094,0.11,0.222,0.167,0.384,0.167C161.163-10.776,161.263-10.792,161.357-10.825z"/>
		<path fill="#9BA534" d="M161.995-12.574c-0.035-0.036-0.053-0.078-0.053-0.126c0-0.051,0.018-0.093,0.053-0.128
			s0.078-0.054,0.128-0.054s0.092,0.019,0.128,0.054c0.035,0.035,0.053,0.077,0.053,0.128c0,0.048-0.018,0.09-0.053,0.126
			c-0.036,0.037-0.078,0.055-0.128,0.055S162.03-12.537,161.995-12.574z M162.248-10.542h-0.25v-1.559h0.25V-10.542z"/>
		<path fill="#9BA534" d="M163.963-11.075c0,0.183,0.039,0.275,0.115,0.28l-0.04,0.249c-0.138-0.017-0.229-0.056-0.271-0.118
			c-0.138,0.091-0.287,0.137-0.449,0.137c-0.125,0-0.238-0.023-0.34-0.069c-0.102-0.047-0.184-0.109-0.245-0.186
			c-0.062-0.077-0.108-0.161-0.142-0.25s-0.05-0.18-0.05-0.271c0-0.241,0.064-0.437,0.194-0.588c0.13-0.15,0.313-0.226,0.544-0.226
			c0.202,0,0.366,0.053,0.493,0.159c0.127,0.105,0.19,0.24,0.19,0.405V-11.075z M162.934-10.943c0.094,0.11,0.222,0.167,0.384,0.167
			s0.294-0.049,0.396-0.146l-0.003-0.614c-0.006-0.115-0.049-0.198-0.128-0.251c-0.079-0.054-0.18-0.08-0.303-0.08
			c-0.141,0-0.257,0.054-0.349,0.16c-0.092,0.105-0.138,0.237-0.138,0.396C162.793-11.177,162.84-11.054,162.934-10.943z"/>
		<path fill="#9BA534" d="M164.57-10.542h-0.249v-2.339h0.249V-10.542z"/>
	</g>
	<g>
		<path fill="#9BA534" d="M134.44-28.184c0.6-3.422,3.601-6.634,7.267-4.933c3.574,1.658,5.127,5.64,8.379,7.703
			c1.517,0.962,3.63,1.509,5.41,1.086c1.199-0.285,2.543-1.088,2.492-2.499c-0.041-1.165-1.052-2.575-2.38-2.146
			c-0.6,0.193-1.019,0.542-1.299,1.108c-0.271,0.548,0.155,1.124,0.721,1.163c0.399,0.028,0.743-0.065,1.105-0.229
			c0.45-0.202,0.035-0.415-0.275-0.274c-1.22,0.55-0.927-0.79-0.534-1.2c0.443-0.463,0.949-0.149,1.301,0.167
			c0.534,0.479,0.716,1.255,0.617,1.938c-0.288,1.983-2.989,1.83-4.395,1.486c-3.532-0.864-5.354-4.225-7.754-6.623
			c-2.152-2.152-5.087-3.369-7.942-1.847c-1.866,0.995-3.063,3.161-3.419,5.193C133.688-27.829,134.4-27.952,134.44-28.184
			L134.44-28.184z"/>
	</g>
	<g>
		<path fill="#9BA534" d="M147.704-27.553c0.812,0.955,1.838,1.764,3.157,1.561c0.954-0.148,2.042-0.955,2.167-1.951
			c0.143-1.149-1.352-1.047-1.976-0.675c-0.251,0.149-0.596,0.617-0.409,0.921c0.213,0.35,0.67,0.198,0.98,0.089
			c0.371-0.13,0.031-0.323-0.223-0.234c-0.076-0.077-0.15-0.153-0.226-0.229c0.097-0.394,0.408-0.54,0.935-0.44
			c0.318,0.14,0.37,0.516,0.334,0.813c-0.069,0.553-0.657,1.021-1.127,1.259c-1.197,0.604-2.375-0.489-3.091-1.333
			C148.099-27.925,147.561-27.724,147.704-27.553L147.704-27.553z"/>
	</g>
</g>
<g>
	<path fill="#6B6B24" d="M-6.558,56.873l-0.255-0.656h-0.839l-0.251,0.656h-0.27l0.826-2.124h0.24l0.825,2.124H-6.558z
		 M-6.892,55.981l-0.237-0.641l-0.102-0.315c-0.029,0.115-0.059,0.22-0.091,0.315l-0.24,0.641H-6.892z"/>
	<path fill="#6B6B24" d="M-4.637,55.38c0,0.216-0.074,0.382-0.221,0.497s-0.355,0.174-0.624,0.174h-0.243v0.822h-0.266v-2.115h0.56
		C-4.901,54.758-4.637,54.965-4.637,55.38z M-5.725,55.822h0.213c0.21,0,0.363-0.035,0.457-0.103
		c0.095-0.069,0.142-0.177,0.142-0.328c0-0.136-0.044-0.237-0.132-0.306c-0.088-0.066-0.225-0.102-0.411-0.102h-0.27V55.822z"/>
	<path fill="#6B6B24" d="M-2.944,56.873l-0.255-0.656h-0.839l-0.251,0.656h-0.27l0.826-2.124h0.24l0.824,2.124H-2.944z
		 M-3.278,55.981l-0.237-0.641l-0.102-0.315c-0.029,0.115-0.06,0.22-0.091,0.315l-0.24,0.641H-3.278z"/>
	<path fill="#6B6B24" d="M-2.111,56v0.873h-0.266v-2.115h0.583c0.262,0,0.457,0.051,0.582,0.149
		c0.126,0.101,0.189,0.251,0.189,0.451c0,0.28-0.142,0.47-0.424,0.567l0.58,0.947h-0.311L-1.69,56H-2.111z M-2.111,55.773h0.317
		c0.171,0,0.297-0.034,0.376-0.101c0.079-0.067,0.119-0.169,0.119-0.302s-0.04-0.23-0.12-0.291c-0.081-0.062-0.21-0.092-0.39-0.092
		h-0.302V55.773z"/>
	<path fill="#6B6B24" d="M0.136,56.873h-0.268v-1.881h-0.661v-0.234h1.586v0.234H0.136V56.873z"/>
	<path fill="#6B6B24" d="M2.339,56.873l-0.255-0.656H1.246l-0.252,0.656H0.725l0.826-2.124h0.24l0.825,2.124H2.339z M2.005,55.981
		l-0.237-0.641l-0.101-0.315c-0.029,0.115-0.06,0.22-0.091,0.315l-0.24,0.641H2.005z"/>
	<path fill="#6B6B24" d="M3.839,56.873l-0.697-1.854H3.13c0.014,0.154,0.021,0.345,0.021,0.571v1.283H2.906v-2.115H3.3l0.652,1.733
		h0.011l0.664-1.733h0.391v2.115H4.755v-1.301c0-0.145,0.007-0.328,0.021-0.551H4.763l-0.706,1.852H3.839z"/>
	<path fill="#6B6B24" d="M6.775,56.873H5.594v-2.115h1.182v0.234H5.86v0.66h0.862v0.232H5.86v0.754h0.916V56.873z"/>
	<path fill="#6B6B24" d="M8.918,56.873H8.607l-1.132-1.756H7.463l0.007,0.117c0.012,0.176,0.018,0.328,0.018,0.457v1.182H7.241
		v-2.115h0.308l0.065,0.104l0.694,1.073l0.369,0.573h0.011c-0.002-0.021-0.005-0.105-0.011-0.248
		c-0.006-0.142-0.009-0.244-0.009-0.309v-1.193h0.249V56.873z"/>
	<path fill="#6B6B24" d="M10.162,56.873H9.895v-1.881H9.233v-0.234h1.585v0.234h-0.657V56.873z"/>
	<path fill="#6B6B24" d="M12.957,55.813c0,0.339-0.085,0.604-0.257,0.799c-0.171,0.193-0.411,0.291-0.718,0.291
		c-0.312,0-0.552-0.096-0.723-0.287c-0.17-0.189-0.255-0.459-0.255-0.805c0-0.345,0.084-0.612,0.254-0.803
		c0.169-0.188,0.412-0.283,0.727-0.283c0.307,0,0.545,0.096,0.716,0.289C12.872,55.205,12.957,55.473,12.957,55.813z M11.285,55.813
		c0,0.28,0.059,0.492,0.178,0.64c0.118,0.146,0.292,0.22,0.519,0.22c0.227,0,0.399-0.072,0.516-0.217
		c0.118-0.145,0.177-0.359,0.177-0.643s-0.058-0.496-0.175-0.639c-0.117-0.144-0.289-0.215-0.515-0.215
		c-0.229,0-0.404,0.073-0.522,0.218C11.344,55.322,11.285,55.534,11.285,55.813z"/>
	<path fill="#6B6B24" d="M14.624,56.308c0,0.184-0.066,0.329-0.2,0.436c-0.133,0.106-0.318,0.159-0.555,0.159
		c-0.251,0-0.445-0.033-0.582-0.1v-0.256c0.089,0.039,0.188,0.07,0.294,0.092c0.107,0.022,0.206,0.033,0.299,0.033
		c0.158,0,0.277-0.031,0.357-0.092c0.08-0.061,0.12-0.143,0.12-0.25c0-0.07-0.015-0.128-0.043-0.174
		c-0.029-0.045-0.077-0.087-0.146-0.127c-0.068-0.039-0.171-0.084-0.309-0.135c-0.196-0.07-0.335-0.155-0.419-0.252
		c-0.084-0.098-0.126-0.223-0.126-0.375c0-0.165,0.063-0.296,0.187-0.394c0.124-0.098,0.287-0.146,0.49-0.146
		c0.211,0,0.405,0.04,0.583,0.119l-0.082,0.229c-0.182-0.075-0.35-0.112-0.506-0.112c-0.126,0-0.224,0.027-0.295,0.08
		c-0.071,0.055-0.106,0.13-0.106,0.228c0,0.069,0.014,0.126,0.041,0.173c0.027,0.045,0.072,0.088,0.133,0.125
		c0.061,0.037,0.157,0.08,0.289,0.129c0.157,0.058,0.274,0.113,0.352,0.168c0.077,0.055,0.134,0.117,0.171,0.188
		C14.605,56.125,14.624,56.209,14.624,56.308z"/>
</g>
<g>
	<path fill="#9BA534" d="M22.68,56.873v-2.115h0.266v1.878h0.924v0.237H22.68z"/>
	<path fill="#9BA534" d="M26.05,55.813c0,0.339-0.086,0.604-0.257,0.799c-0.171,0.193-0.411,0.291-0.718,0.291
		c-0.311,0-0.552-0.096-0.723-0.287c-0.17-0.189-0.255-0.459-0.255-0.805c0-0.345,0.084-0.612,0.253-0.803
		c0.169-0.188,0.412-0.283,0.728-0.283c0.307,0,0.545,0.096,0.716,0.289C25.964,55.205,26.05,55.473,26.05,55.813z M24.377,55.813
		c0,0.28,0.059,0.492,0.178,0.64c0.119,0.146,0.292,0.22,0.519,0.22s0.399-0.072,0.517-0.217s0.177-0.359,0.177-0.643
		s-0.059-0.496-0.175-0.639c-0.117-0.144-0.289-0.215-0.515-0.215c-0.229,0-0.404,0.073-0.522,0.218
		C24.437,55.322,24.377,55.534,24.377,55.813z"/>
	<path fill="#9BA534" d="M27.422,54.963c-0.228,0-0.406,0.075-0.537,0.229c-0.13,0.151-0.195,0.36-0.195,0.624
		c0,0.272,0.063,0.483,0.189,0.632c0.126,0.148,0.306,0.223,0.54,0.223c0.15,0,0.32-0.029,0.508-0.085v0.231
		c-0.09,0.033-0.176,0.055-0.259,0.066c-0.083,0.014-0.179,0.02-0.287,0.02c-0.312,0-0.551-0.096-0.72-0.285
		c-0.168-0.189-0.252-0.457-0.252-0.805c0-0.218,0.04-0.408,0.121-0.572s0.198-0.291,0.352-0.379
		c0.154-0.09,0.335-0.134,0.543-0.134c0.224,0,0.418,0.042,0.584,0.124l-0.107,0.227C27.734,55,27.574,54.963,27.422,54.963z"/>
	<path fill="#9BA534" d="M29.715,56.873l-0.255-0.656h-0.839l-0.251,0.656h-0.27l0.826-2.124h0.24l0.824,2.124H29.715z
		 M29.381,55.981l-0.237-0.641l-0.102-0.315c-0.029,0.115-0.06,0.22-0.091,0.315l-0.241,0.641H29.381z"/>
	<path fill="#9BA534" d="M30.282,56.873v-2.115h0.266v1.878h0.924v0.237H30.282z"/>
	<path fill="#9BA534" d="M33.017,56.873h-1.182v-2.115h1.182v0.234h-0.916v0.66h0.862v0.232h-0.862v0.754h0.916V56.873z"/>
	<path fill="#9BA534" d="M34.681,56.308c0,0.184-0.066,0.329-0.2,0.436c-0.133,0.106-0.318,0.159-0.555,0.159
		c-0.25,0-0.444-0.033-0.582-0.1v-0.256c0.09,0.039,0.188,0.07,0.294,0.092c0.106,0.022,0.206,0.033,0.298,0.033
		c0.158,0,0.277-0.031,0.357-0.092s0.12-0.143,0.12-0.25c0-0.07-0.014-0.128-0.043-0.174c-0.029-0.045-0.078-0.087-0.146-0.127
		c-0.068-0.039-0.171-0.084-0.309-0.135c-0.196-0.07-0.335-0.155-0.419-0.252c-0.084-0.098-0.126-0.223-0.126-0.375
		c0-0.165,0.062-0.296,0.186-0.394c0.125-0.098,0.288-0.146,0.49-0.146c0.211,0,0.405,0.04,0.583,0.119l-0.083,0.229
		c-0.182-0.075-0.35-0.112-0.506-0.112c-0.125,0-0.224,0.027-0.294,0.08c-0.071,0.055-0.106,0.13-0.106,0.228
		c0,0.069,0.014,0.126,0.042,0.173c0.027,0.045,0.072,0.088,0.133,0.125s0.158,0.08,0.289,0.129
		c0.157,0.058,0.274,0.113,0.352,0.168c0.077,0.055,0.133,0.117,0.17,0.188C34.663,56.125,34.681,56.209,34.681,56.308z"/>
</g>
<g>
	<path fill="#C8C933" d="M49.465,54.758h0.279l0.476,1.357c0.061,0.172,0.105,0.325,0.133,0.461c0.024-0.121,0.07-0.276,0.135-0.467
		l0.474-1.352h0.282l-0.756,2.115H50.22L49.465,54.758z"/>
	<path fill="#C8C933" d="M52.125,56.873h-0.764V56.72l0.248-0.057v-1.692l-0.248-0.059v-0.154h0.764v0.154l-0.249,0.059v1.692
		l0.249,0.057V56.873z"/>
	<path fill="#C8C933" d="M54.229,55.795c0,0.35-0.096,0.615-0.286,0.801c-0.19,0.185-0.464,0.277-0.819,0.277h-0.588v-2.115h0.65
		c0.329,0,0.585,0.091,0.768,0.271S54.229,55.466,54.229,55.795z M53.948,55.804c0-0.269-0.067-0.473-0.2-0.61
		c-0.133-0.139-0.332-0.209-0.601-0.209h-0.347v1.66h0.287C53.661,56.645,53.948,56.365,53.948,55.804z"/>
	<path fill="#C8C933" d="M55.879,56.873h-1.182v-2.115h1.182v0.234h-0.915v0.66h0.862v0.232h-0.862v0.754h0.915V56.873z"/>
	<path fill="#C8C933" d="M58.191,55.813c0,0.339-0.087,0.604-0.258,0.799c-0.171,0.193-0.411,0.291-0.718,0.291
		c-0.312,0-0.554-0.096-0.724-0.287c-0.17-0.189-0.255-0.459-0.255-0.805c0-0.345,0.085-0.612,0.254-0.803
		c0.169-0.188,0.411-0.283,0.728-0.283c0.307,0,0.545,0.096,0.716,0.289C58.105,55.205,58.191,55.473,58.191,55.813z M56.518,55.813
		c0,0.28,0.06,0.492,0.179,0.64c0.118,0.146,0.291,0.22,0.52,0.22c0.227,0,0.399-0.072,0.517-0.217s0.176-0.359,0.176-0.643
		s-0.059-0.496-0.174-0.639c-0.118-0.144-0.289-0.215-0.516-0.215c-0.229,0-0.404,0.073-0.522,0.218
		C56.577,55.322,56.518,55.534,56.518,55.813z"/>
</g>
<g>
	<path fill="#D6C933" d="M71.613,54.758h0.604c0.283,0,0.488,0.042,0.613,0.127c0.127,0.084,0.19,0.217,0.19,0.396
		c0,0.125-0.034,0.229-0.104,0.311c-0.068,0.082-0.168,0.135-0.3,0.158v0.015c0.163,0.028,0.283,0.085,0.359,0.17
		c0.076,0.084,0.116,0.197,0.116,0.337c0,0.189-0.065,0.336-0.194,0.443c-0.129,0.105-0.311,0.158-0.541,0.158h-0.744V54.758z
		 M71.88,55.658h0.391c0.166,0,0.286-0.027,0.361-0.08c0.076-0.053,0.113-0.141,0.113-0.266c0-0.116-0.042-0.199-0.124-0.25
		c-0.083-0.051-0.214-0.078-0.392-0.078h-0.35V55.658z M71.88,55.881v0.767h0.427c0.17,0,0.295-0.032,0.378-0.099
		c0.081-0.066,0.122-0.165,0.122-0.298c0-0.126-0.043-0.22-0.13-0.28s-0.217-0.09-0.391-0.09H71.88z"/>
	<path fill="#D6C933" d="M73.805,56v0.873h-0.266v-2.115h0.584c0.262,0,0.455,0.051,0.581,0.149
		c0.125,0.101,0.188,0.251,0.188,0.451c0,0.28-0.141,0.47-0.423,0.567l0.58,0.947h-0.311L74.226,56H73.805z M73.805,55.773h0.318
		c0.171,0,0.296-0.034,0.375-0.101c0.079-0.067,0.119-0.169,0.119-0.302s-0.041-0.23-0.12-0.291c-0.08-0.062-0.21-0.092-0.389-0.092
		h-0.304V55.773z"/>
	<path fill="#D6C933" d="M77.228,55.813c0,0.339-0.085,0.604-0.257,0.799c-0.171,0.193-0.41,0.291-0.718,0.291
		c-0.312,0-0.553-0.096-0.723-0.287c-0.171-0.189-0.255-0.459-0.255-0.805c0-0.345,0.083-0.612,0.253-0.803
		c0.17-0.188,0.412-0.283,0.728-0.283c0.307,0,0.545,0.096,0.717,0.289C77.143,55.205,77.228,55.473,77.228,55.813z M75.556,55.813
		c0,0.28,0.06,0.492,0.178,0.64c0.118,0.146,0.292,0.22,0.52,0.22c0.227,0,0.398-0.072,0.517-0.217s0.176-0.359,0.176-0.643
		s-0.058-0.496-0.175-0.639c-0.116-0.144-0.288-0.215-0.515-0.215c-0.229,0-0.404,0.073-0.522,0.218
		C75.615,55.322,75.556,55.534,75.556,55.813z"/>
	<path fill="#D6C933" d="M78.601,54.963c-0.228,0-0.406,0.075-0.537,0.229c-0.13,0.151-0.194,0.36-0.194,0.624
		c0,0.272,0.063,0.483,0.189,0.632c0.126,0.148,0.306,0.223,0.539,0.223c0.151,0,0.319-0.029,0.508-0.085v0.231
		c-0.089,0.033-0.176,0.055-0.259,0.066c-0.083,0.014-0.179,0.02-0.287,0.02c-0.312,0-0.552-0.096-0.72-0.285
		s-0.251-0.457-0.251-0.805c0-0.218,0.039-0.408,0.12-0.572c0.08-0.164,0.197-0.291,0.352-0.379c0.153-0.09,0.334-0.134,0.544-0.134
		c0.223,0,0.417,0.042,0.583,0.124l-0.106,0.227C78.912,55,78.752,54.963,78.601,54.963z"/>
	<path fill="#D6C933" d="M81.185,56.873h-0.267v-0.986h-1.085v0.986h-0.266v-2.115h0.266v0.895h1.085v-0.895h0.267V56.873z"/>
	<path fill="#D6C933" d="M83.371,54.758v1.368c0,0.241-0.072,0.431-0.219,0.569c-0.145,0.138-0.347,0.207-0.605,0.207
		c-0.255,0-0.453-0.07-0.594-0.209c-0.142-0.14-0.212-0.33-0.212-0.572v-1.363h0.268v1.372c0,0.173,0.046,0.306,0.138,0.4
		s0.23,0.142,0.417,0.142c0.174,0,0.309-0.047,0.402-0.141s0.141-0.229,0.141-0.405v-1.368H83.371z"/>
	<path fill="#D6C933" d="M84.194,56v0.873h-0.267v-2.115h0.584c0.262,0,0.455,0.051,0.582,0.149
		c0.126,0.101,0.188,0.251,0.188,0.451c0,0.28-0.141,0.47-0.424,0.567l0.58,0.947h-0.311L84.615,56H84.194z M84.194,55.773h0.317
		c0.172,0,0.296-0.034,0.376-0.101c0.079-0.067,0.119-0.169,0.119-0.302s-0.041-0.23-0.121-0.291
		c-0.079-0.062-0.21-0.092-0.389-0.092h-0.303V55.773z"/>
	<path fill="#D6C933" d="M86.953,56.873h-1.182v-2.115h1.182v0.234h-0.915v0.66h0.861v0.232h-0.861v0.754h0.915V56.873z"/>
</g>
<g>
	<path fill="#E8C933" d="M97.922,54.963c-0.228,0-0.406,0.075-0.536,0.229c-0.131,0.151-0.195,0.36-0.195,0.624
		c0,0.272,0.063,0.483,0.189,0.632c0.127,0.148,0.306,0.223,0.539,0.223c0.15,0,0.319-0.029,0.508-0.085v0.231
		c-0.089,0.033-0.176,0.055-0.259,0.066c-0.083,0.014-0.179,0.02-0.286,0.02c-0.313,0-0.552-0.096-0.721-0.285
		c-0.168-0.189-0.252-0.457-0.252-0.805c0-0.218,0.041-0.408,0.121-0.572s0.198-0.291,0.352-0.379
		c0.153-0.09,0.334-0.134,0.543-0.134c0.224,0,0.418,0.042,0.585,0.124l-0.107,0.227C98.233,55,98.074,54.963,97.922,54.963z"/>
	<path fill="#E8C933" d="M100.705,55.813c0,0.339-0.085,0.604-0.257,0.799c-0.171,0.193-0.41,0.291-0.718,0.291
		c-0.313,0-0.553-0.096-0.723-0.287c-0.17-0.189-0.255-0.459-0.255-0.805c0-0.345,0.084-0.612,0.254-0.803
		c0.169-0.188,0.411-0.283,0.726-0.283c0.308,0,0.546,0.096,0.717,0.289C100.62,55.205,100.705,55.473,100.705,55.813z
		 M99.033,55.813c0,0.28,0.059,0.492,0.178,0.64c0.119,0.146,0.291,0.22,0.52,0.22c0.227,0,0.398-0.072,0.516-0.217
		c0.118-0.145,0.177-0.359,0.177-0.643s-0.058-0.496-0.175-0.639c-0.117-0.144-0.288-0.215-0.516-0.215
		c-0.229,0-0.402,0.073-0.521,0.218C99.092,55.322,99.033,55.534,99.033,55.813z"/>
	<path fill="#E8C933" d="M102.85,56.873h-0.313l-1.132-1.756h-0.012l0.007,0.117c0.012,0.176,0.019,0.328,0.019,0.457v1.182h-0.246
		v-2.115h0.308l0.064,0.104l0.695,1.073l0.368,0.573h0.012c-0.001-0.021-0.005-0.105-0.012-0.248
		c-0.006-0.142-0.008-0.244-0.008-0.309v-1.193h0.249V56.873z"/>
	<path fill="#E8C933" d="M104.094,56.873h-0.268v-1.881h-0.662v-0.234h1.585v0.234h-0.655V56.873z"/>
	<path fill="#E8C933" d="M106.296,56.873l-0.255-0.656h-0.838l-0.252,0.656h-0.269l0.826-2.124h0.24l0.823,2.124H106.296z
		 M105.962,55.981l-0.236-0.641l-0.102-0.315c-0.029,0.115-0.06,0.22-0.091,0.315l-0.241,0.641H105.962z"/>
	<path fill="#E8C933" d="M107.74,54.963c-0.228,0-0.407,0.075-0.537,0.229c-0.13,0.151-0.195,0.36-0.195,0.624
		c0,0.272,0.063,0.483,0.19,0.632c0.126,0.148,0.305,0.223,0.538,0.223c0.152,0,0.32-0.029,0.508-0.085v0.231
		c-0.089,0.033-0.175,0.055-0.258,0.066c-0.084,0.014-0.18,0.02-0.287,0.02c-0.312,0-0.551-0.096-0.719-0.285
		c-0.169-0.189-0.253-0.457-0.253-0.805c0-0.218,0.04-0.408,0.121-0.572c0.08-0.164,0.197-0.291,0.352-0.379
		c0.153-0.09,0.334-0.134,0.543-0.134c0.224,0,0.418,0.042,0.584,0.124l-0.106,0.227C108.051,55,107.892,54.963,107.74,54.963z"/>
	<path fill="#E8C933" d="M109.376,56.873h-0.268v-1.881h-0.661v-0.234h1.586v0.234h-0.657V56.873z"/>
	<path fill="#E8C933" d="M112.171,55.813c0,0.339-0.085,0.604-0.257,0.799c-0.171,0.193-0.41,0.291-0.718,0.291
		c-0.312,0-0.552-0.096-0.722-0.287c-0.171-0.189-0.257-0.459-0.257-0.805c0-0.345,0.085-0.612,0.255-0.803
		c0.169-0.188,0.411-0.283,0.727-0.283c0.307,0,0.545,0.096,0.715,0.289C112.086,55.205,112.171,55.473,112.171,55.813z
		 M110.499,55.813c0,0.28,0.059,0.492,0.178,0.64c0.119,0.146,0.292,0.22,0.52,0.22c0.227,0,0.398-0.072,0.516-0.217
		s0.178-0.359,0.178-0.643s-0.06-0.496-0.176-0.639c-0.116-0.144-0.288-0.215-0.515-0.215c-0.229,0-0.403,0.073-0.522,0.218
		C110.558,55.322,110.499,55.534,110.499,55.813z"/>
</g>
<g>
	<path fill="#6B6B24" d="M100.788-16.994c-0.014-0.29-0.533-0.283-0.709-0.276c-9.365,0.579-18.744,0.521-28.123,0.521
		c-0.377,0-1.189,0.188-1.115,0.716c1.105,7.771-0.737,15.808,0.068,23.633c0.022,0.211,0.35,0.276,0.506,0.279
		c5.369,0.225,10.676,0.137,16.01-0.563c0.816-0.105,1.314-1.127,0.197-0.984c-1.764,0.235-3.526,0.389-5.289,0.498
		c-0.172-1.227,0.033-2.512,0.044-3.734c0.001-0.218-1.618,0-1.62,0.433c-0.008,1.107-0.178,2.266-0.085,3.383
		c-1.563,0.068-3.131,0.105-4.71,0.103c-4.988-0.021-3.584-4.307-3.433-7.932c0.066-1.625,0.155-3.291,0.224-4.974
		c1.378-0.211,2.756-0.041,4.16-0.088c1.17-0.034,2.344-0.096,3.514-0.164c0.084,1.502,0.121,3.005-0.048,4.511
		c-0.08,0.726,1.56,0.446,1.628-0.171c0.025-0.225,0.035-0.442,0.05-0.667c2.707-0.232,5.446-0.208,8.156-0.382
		c0.799-0.055,1.343-0.968,0.222-0.899c-2.769,0.184-5.563,0.149-8.325,0.402c0.099-3.094-0.427-6.16-0.288-9.26
		c0.035-0.743-1.6-0.443-1.628,0.17c-0.083,1.836,0.069,3.662,0.187,5.492c-1.154,0.062-2.308,0.123-3.465,0.15
		c-1.438,0.034-2.748-0.068-4.129,0.143c0.109-3.059,0.111-6.143-0.243-9.096c6.368,0,12.731,0.007,19.097-0.153
		c2.869-0.072,7.564-1.809,7.662,2.773c0.052,2.518-0.262,5.039-0.418,7.55c-0.049,0.739-0.072,1.482-0.08,2.218
		c-1.078,0.04-2.158,0.081-3.232,0.007c-0.115-0.906,0.029-1.803,0.041-2.719c0.009-0.807-1.628-0.531-1.637,0.143
		c-0.012,1.121-0.213,2.201,0.009,3.315c0.046,0.228,0.327,0.316,0.52,0.337c1.429,0.153,2.868,0.068,4.303,0.021
		c0.027,4.606,0.55,9.219,0.32,13.825c-0.026,0.504-2.403,0.272-3.854,0.361c-1.875,0.115-2.646,1.021-2.646-1.479
		c0-1.393,0.086-2.786,0.188-4.173c0.052-0.719-1.584-0.419-1.627,0.181c-0.158,2.184-0.214,4.367-0.154,6.558
		c0.008,0.276,0.541,0.304,0.709,0.276c2.664-0.477,5.383-0.439,8.068-0.709c0.273-0.027,0.893-0.218,0.912-0.582
		c0.25-4.984-0.169-9.938-0.27-14.926C100.358-7.635,101.038-12.268,100.788-16.994z"/>
</g>
<g>
	<g>
		<path fill="#595D30" d="M-26.921-14.81c-0.015-0.187-0.276-0.257-0.396-0.262c-15.202-0.389-30.442-0.56-45.646,0.008
			c-0.225,0.007-0.676,0.209-0.704,0.53c-0.846,10.212-0.147,20.204,0,30.409c0.007,0.26,0.186,0.38,0.398,0.38
			c1.09,0.021,2.177,0.008,3.268-0.022c0.265-0.011,0.827-0.127,0.864-0.546c0.147-1.676,0.168-3.304,0.155-4.997
			c-0.006-0.673-1.26-0.379-1.256,0.157c0.013,1.915,0.63,4.489-1.465,4.502c-1.226,0.011-0.752-2.059-0.799-3.427
			c-0.175-5.228-0.469-10.434-0.451-15.671c0.014-2.994,0.177-5.987,0.382-8.971c0.176-2.554,4.196-1.583,5.875-1.621
			c4.253-0.086,8.509-0.112,12.763-0.116c8.375-0.019,16.75,0.078,25.125,0.28c1.521,0.034,1.491,16.486,1.55,18.407
			c0.098,3.162,0.134,6.326,0.153,9.482c0.012,1.581-2.05,1.907-2.021,0.457c0.027-1.314,0.067-2.602,0.044-3.921
			c0-0.276-0.182-0.351-0.396-0.379c-3.007-0.42-6.122-0.391-9.23-0.26c-0.15-0.257-0.857-0.175-1.349,0.057
			c-2.119,0.103-4.23,0.225-6.288,0.253c-7.062,0.108-14.18,0.403-21.233-0.115c-0.525-0.038-1.317,0.855-0.467,0.919
			c2.534,0.187,5.079,0.265,7.624,0.292c-0.021,0.037-0.05,0.069-0.056,0.107c-0.189,1.648-0.085,3.331-0.083,4.982
			c0.003,0.418,1.881,0.078,1.88-0.59c-0.004-1.486-0.098-3.01,0.041-4.49c2.751,0,5.503-0.051,8.251-0.108
			c-0.063,0.064-0.104,0.136-0.114,0.206c-0.188,1.648-0.087,3.331-0.081,4.982c0,0.418,1.88,0.078,1.88-0.59
			c-0.006-1.531-0.11-3.108,0.05-4.639c0.954-0.019,1.909-0.038,2.859-0.048c1.741-0.025,3.481-0.058,5.224-0.088
			c-0.138,1.779-0.042,3.59-0.038,5.364c0.003,0.418,1.881,0.078,1.879-0.59c-0.004-1.577-0.095-3.204-0.007-4.792
			c1.472-0.02,2.941-0.041,4.412-0.046c1.092-0.006,2.182-0.002,3.274,0.026c1.628,0.052,0.676,2.985,0.641,4.637
			c-0.003,0.255,0.191,0.385,0.397,0.381c1.157-0.013,2.308-0.055,3.461-0.153c0.202-0.022,0.703-0.213,0.703-0.54
			C-25.864,5.064-26.253-4.876-26.921-14.81z"/>
	</g>
	<g>
		<path fill="#595D30" d="M-57.912-11.12c-0.002-0.44-1.255-0.164-1.253,0.389c0.004,1.657-4.032,0.91-4.956,0.904
			c-1.74-0.007-3.481-0.023-5.218-0.109c-0.46-0.025-1.338,0.775-0.493,0.812c3.203,0.16,6.411,0.061,9.614,0.201
			C-58.94-8.868-57.908-9.412-57.912-11.12z"/>
	</g>
	<g>
		<path fill="#595D30" d="M-49.992-9.515c6.077-0.193,12.154-0.119,18.229-0.144c0.28,0,0.889-0.163,0.869-0.603
			c0.023-0.567-0.069-1.121-0.277-1.643c-0.125-0.5-1.375-0.098-1.251,0.392c0.13,0.34,0.201,0.691,0.239,1.042
			c-5.771,0.016-11.544-0.038-17.315,0.149C-49.947-10.31-50.833-9.484-49.992-9.515z"/>
	</g>
	<g>
		<path fill="#595D30" d="M-70.023-4.066c3.258,0.162,6.522,0.06,9.783,0.2c1.275,0.06,2.332-0.475,2.329-2.198
			c-0.002-0.44-1.255-0.163-1.253,0.396c0.002,1.654-4.138,0.905-5.06,0.899c-1.768-0.01-3.538-0.021-5.306-0.107
			C-69.993-4.903-70.869-4.106-70.023-4.066z"/>
	</g>
	<g>
		<path fill="#595D30" d="M-49.992-4.45c6.077-0.193,12.154-0.127,18.229-0.149c0.28,0,0.889-0.16,0.869-0.604
			c0.039-0.577-0.055-1.126-0.277-1.645c-0.142-0.5-1.385-0.078-1.251,0.396c0.144,0.336,0.212,0.687,0.249,1.042
			c-5.777,0.014-11.553-0.038-17.325,0.145C-49.947-5.249-50.833-4.424-49.992-4.45z"/>
	</g>
	<g>
		<path fill="#595D30" d="M-59.165-0.609c0.004,1.657-4.058,0.909-4.98,0.903c-1.749-0.013-3.496-0.023-5.24-0.112
			c-0.463-0.022-1.34,0.769-0.494,0.814c3.218,0.16,6.438,0.059,9.654,0.201c1.276,0.056,2.316-0.486,2.313-2.2
			C-57.914-1.438-59.167-1.171-59.165-0.609z"/>
	</g>
	<g>
		<path fill="#595D30" d="M-49.992,0.605c6.077-0.193,12.154-0.118,18.229-0.144c0.28-0.004,0.889-0.162,0.869-0.605
			c0.107-0.625-0.008-1.168-0.348-1.644c-0.237-0.481-1.44,0.011-1.255,0.393c0.228,0.313,0.345,0.664,0.375,1.045
			c-5.792,0.016-11.587-0.037-17.376,0.15C-49.947-0.187-50.833,0.638-49.992,0.605z"/>
	</g>
	<g>
		<path fill="#595D30" d="M-60.224,6.254c1.276,0.061,2.316-0.485,2.313-2.195c-0.002-0.441-1.255-0.165-1.253,0.395
			c0.004,1.655-4.058,0.904-4.98,0.904c-1.749-0.016-3.496-0.027-5.24-0.111c-0.463-0.026-1.34,0.77-0.494,0.81
			C-66.66,6.217-63.44,6.11-60.224,6.254z"/>
	</g>
	<g>
		<path fill="#595D30" d="M-49.992,5.671c6.077-0.193,12.154-0.126,18.229-0.149c0.28,0,0.889-0.16,0.869-0.604
			c0.107-0.625-0.008-1.174-0.348-1.645c-0.237-0.486-1.44,0.015-1.255,0.396c0.228,0.314,0.345,0.667,0.375,1.044
			c-5.792,0.014-11.587-0.038-17.376,0.146C-49.947,4.871-50.833,5.694-49.992,5.671z"/>
	</g>
</g>
<g>
	<g>
		<path fill="#C8C933" d="M80.254-54.947c-2.206-8.999-14.342-13.718-23.509-10.395c-7.873,1.585-12.695,6.132-13.625,15.162
			c-1.092,10.635,10.818,15.493,21.185,14.657C75.413-36.418,82.567-45.507,80.254-54.947z M60.188-36.761
			c-6.979-0.646-12.1-4.551-13.755-10.379c-1.105-3.872,0.325-7.799,2.075-11.313c1.565-3.151,3.988-4.768,6.939-5.58
			c0.55,0.031,1.285-0.055,1.637-0.229c0.172-0.079,0.344-0.146,0.515-0.221c1.642-0.245,3.397-0.323,5.229-0.327
			c0.387,0,1.041-0.225,1.506-0.477c6.605,1.127,12.051,7.523,13.35,12.811C79.991-43.078,70.104-35.854,60.188-36.761z"/>
	</g>
	<g>
		<path fill="#C8C933" d="M60.011-56.106c-0.893-0.454-3.838-1.183-3.779,0.489c0,0.02,0.026,0.036,0.049,0.055
			c-0.094,0.079-0.167,0.158-0.167,0.252c-0.019,3.226-0.271,6.436-0.095,9.653c0.037,0.074,0.1,0.118,0.186,0.134
			c1.836,0.544,3.975-0.418,5.594-1.097c2.508-1.041,5.066-2.188,6.983-3.986c0.077-0.075,0.136-0.197,0.019-0.28
			C66.056-52.755,63.034-54.576,60.011-56.106z"/>
	</g>
</g>
<g>
	<path fill="#9BA534" d="M-3.002-52.284c0.01-0.73,0.034-1.468,0.08-2.201c0.155-2.492,0.466-4.993,0.414-7.492
		c-0.096-4.547-4.755-2.823-7.6-2.752c-6.318,0.159-12.633,0.152-18.952,0.152c0.352,2.931,0.348,5.991,0.242,9.026l-0.034,0.757
		c-0.068,1.67-0.156,3.323-0.223,4.936c-0.149,3.598-1.542,7.851,3.408,7.871c1.567,0.003,3.122-0.034,4.672-0.102l1.649-0.081
		c1.751-0.108,3.499-0.261,5.25-0.494c1.107-0.142,0.614,0.872-0.198,0.978c-5.292,0.692-10.558,0.78-15.886,0.558
		c-0.154-0.004-0.478-0.067-0.5-0.277c-0.801-7.766,1.027-15.741-0.069-23.452c-0.075-0.524,0.732-0.71,1.107-0.71
		c9.306,0,18.611,0.058,27.905-0.517c0.176-0.007,0.691-0.014,0.705,0.274c0.249,4.689-0.424,9.287-0.334,13.959
		c0.101,4.949,0.517,9.865,0.269,14.811c-0.019,0.362-0.632,0.552-0.904,0.578c-2.666,0.268-5.363,0.23-8.005,0.703
		c-0.167,0.027-0.697,0-0.705-0.273c-0.059-2.174-0.003-4.341,0.154-6.508c0.042-0.595,1.667-0.893,1.614-0.18
		c-0.103,1.376-0.186,2.759-0.186,4.142c0,2.481,0.766,1.582,2.625,1.468c1.44-0.088,3.798,0.142,3.823-0.358
		c0.23-4.571-0.289-9.148-0.317-13.72L-3.002-52.284z"/>
</g>
<g>
	<path fill="#E8C933" d="M24.149-45.235c2.946-1.762,3.989-2.918,2.85-6.405c-0.768-2.351-3.015-5.613-5.916-4.928
		c-10.473,2.468-4.65,14.819-0.954,20.639c3.786,5.968,11.812,12.696,18.302,6.185c2.578-2.588-1.401-7.228-3.483-8.449
		c-0.523-0.303-1.301-0.158-1.834,0.065c-4.697,2.021-7.396-1.208-9.062-5.496c-0.306-0.784-1.955-0.323-1.655,0.447
		c1.163,2.998,3.424,6.767,6.718,7.692c0.571,0.158,1.325-0.018,1.841-0.244c0.685-0.272,1.349-0.585,1.989-0.95
		c0.768,0.293,1.539,0.589,2.306,0.881c2.206,1.883,1.862,4.281-1.046,7.193c-6.866,2.374-12.345-7.324-14.916-12.06
		c-1.601-2.96-2.657-6.174-2.564-9.554c0.23-8.604,14.936-1.005,6.669,3.93C22.439-45.714,23.313-44.736,24.149-45.235
		L24.149-45.235z"/>
</g>
<g>
	<g>
		<path fill="#D6C933" d="M-31.404,27.77c-0.013-0.109-0.154-0.154-0.233-0.186c-3.914-1.534-7.828-4.367-12.082-2.82
			c-2.845,1.028-5.556,2.924-8.592,1.855c-2.672-0.938-5.26-2.295-7.703-3.717c-0.245-0.141-1.037-0.024-1.034,0.359
			c0.044,8.29,0.138,16.574,0.079,24.862c-0.006,0.531,1.151,0.308,1.154-0.123c0.057-7.964-0.025-15.924-0.072-23.888
			c3.376,2.016,7.621,4.568,11.391,3.27c1.082-0.367,2.131-0.846,3.188-1.285c3.075-1.277,4.901-1.139,7.907,0.072
			c1.421,0.574,2.811,1.21,4.235,1.77c1.443,0.563,1.012,6.281,1.069,7.521c0.208,4.951,0.113,9.916-0.079,14.868
			c-0.129,3.448-2.198,1.867-4.493,0.813c-1.182-0.547-2.32-1.357-3.546-1.798c-1.745-0.629-2.852-0.353-4.493,0.446
			c-2.56,1.251-4.829,3.401-8.074,2.516c-2.44-0.667-4.864-1.849-7.156-2.931c-0.38-0.176-1.424,0.358-0.905,0.604
			c3.471,1.629,8.573,4.804,12.425,2.694c1.685-0.921,3.326-1.914,5.059-2.757c1.538-0.748,4.329,1.112,5.788,1.823
			c1.783,0.868,3.65,1.622,5.618,1.893c0.229,0.031,0.78-0.119,0.795-0.421C-30.735,44.722-30.7,36.243-31.404,27.77z"/>
	</g>
	<g>
		<path fill="#D6C933" d="M-41.147,25.978c-0.273,3.22,0.069,6.564,0.208,9.79c0.17,3.968-0.173,7.923,0.113,11.888
			c0.016,0.204,0.594,0.082,0.578-0.154c-0.258-3.502,0.028-6.979-0.075-10.481c-0.11-3.66-0.557-7.445-0.245-11.105
			C-40.55,25.66-41.132,25.77-41.147,25.978z"/>
	</g>
	<g>
		<path fill="#D6C933" d="M-50.674,28.971c-0.509,2.904-0.003,6.152,0.01,9.099c0.028,4.486,0.072,8.973,0.072,13.463
			c0,0.163,0.578,0.057,0.578-0.157c0-3.98,0.01-7.955-0.053-11.932c-0.054-3.354-0.616-7.237-0.028-10.551
			C-50.058,28.688-50.636,28.785-50.674,28.971z"/>
	</g>
	<g>
		<path fill="#D6C933" d="M-58.021,28.958c-0.11,2.849,0.088,5.76,0.339,8.596c0.003,0.054,0.076,0.088,0.12,0.104
			c1.531,0.595,3.015,1.758,4.662,1.946c0.126,0.013,0.384-0.057,0.393-0.22c0.129-2.421-0.286-4.845-0.418-7.263
			c-0.022-0.384,0.019-2.163-0.453-2.314c-1.327-0.414-2.55-1.043-3.804-1.622c-0.211-0.097-0.723,0.188-0.45,0.314
			c0.896,0.415,3.719,1.261,3.977,2.282c0.538,2.135,0.343,4.612,0.579,6.804c0.17,1.588-0.129,1.459-1.254,1.013
			c-0.664-0.265-2.748-0.858-2.839-1.887c-0.227-2.54-0.368-5.263-0.271-7.803C-57.427,28.621-58.009,28.719-58.021,28.958z"/>
	</g>
	<g>
		<path fill="#D6C933" d="M-47.589,39.594c0.191-0.374,1.226-0.556,1.6-0.701c0.877-0.326,1.61-0.949,2.512-1.21
			c0.346-0.098,0.798-0.601,0.154-0.594c-0.314,0.006-0.547,0.068-0.764,0.213c-0.871,0.347-1.645,0.874-2.525,1.204
			c-0.594,0.224-1.72,0.45-2.047,1.072C-48.91,40.057-47.759,39.915-47.589,39.594z"/>
	</g>
	<g>
		<path fill="#D6C933" d="M-47.555,42.71c0.185-0.35,1.339-0.56,1.704-0.708c0.739-0.285,1.38-0.782,2.125-1.059
			c0.135-0.032,0.258-0.076,0.339-0.129c0.312-0.136,0.648-0.484,0.073-0.481c-0.331,0.003-0.598,0.072-0.833,0.248
			c-0.905,0.362-1.72,0.909-2.641,1.245c-0.594,0.217-1.588,0.443-1.905,1.054C-48.828,43.138-47.722,43.037-47.555,42.71z"/>
	</g>
	<g>
		<path fill="#D6C933" d="M-47.577,46.162c0.164-0.314,1.286-0.535,1.61-0.657c0.761-0.28,1.415-0.771,2.163-1.072
			c0.142-0.016,0.271-0.063,0.365-0.139c0.572-0.169,0.613-0.776-0.054-0.77c-0.251,0-0.431,0.072-0.6,0.191
			c-0.877,0.346-1.654,0.887-2.541,1.217c-0.645,0.239-1.688,0.449-2.037,1.116C-48.967,46.614-47.797,46.59-47.577,46.162z"/>
	</g>
	<g>
		<path fill="#D6C933" d="M-35.127,29.822c-0.962-0.349-1.805-0.961-2.77-1.298c-0.135-0.113-0.261-0.132-0.487-0.136
			c-0.167-0.003-1.173,0.425-0.695,0.563c0.06,0.017,0.113,0.045,0.169,0.063c0.016,0.013,0.019,0.025,0.057,0.05
			c0.06,0.076,0.183,0.098,0.321,0.088c0.676,0.293,1.289,0.705,1.968,1c0.475,0.208,1.691,0.384,1.949,0.875
			c0.188,0.357,1.295-0.029,1.15-0.314C-33.737,30.19-34.614,30.008-35.127,29.822z"/>
	</g>
	<g>
		<path fill="#D6C933" d="M-38.956,32.253c0.035,0.013,0.066,0.031,0.104,0.044c0.003,0,0.003,0,0.003,0.006
			c0.079,0.092,0.213,0.129,0.358,0.129c0.704,0.299,1.333,0.746,2.05,1.029c0.49,0.191,1.613,0.37,1.871,0.86
			c0.21,0.403,1.324,0.013,1.06-0.487c-0.268-0.512-1.245-0.72-1.739-0.902c-0.94-0.339-1.761-0.928-2.697-1.27
			c-0.123-0.101-0.251-0.145-0.462-0.148C-38.746,31.512-39.654,32.059-38.956,32.253z"/>
	</g>
	<g>
		<path fill="#D6C933" d="M-35.243,36.265c-0.934-0.34-1.751-0.918-2.675-1.267c-0.132-0.11-0.264-0.148-0.484-0.151
			c-0.314-0.003-1.242,0.506-0.56,0.701c0.031,0.01,0.06,0.025,0.094,0.034c0.013,0.01,0.006,0.01,0.019,0.022
			c0.075,0.088,0.208,0.119,0.352,0.119c0.717,0.302,1.361,0.755,2.094,1.044c0.421,0.164,1.566,0.353,1.789,0.776
			c0.223,0.431,1.349,0.066,1.15-0.311C-33.766,36.654-34.68,36.473-35.243,36.265z"/>
	</g>
	<g>
		<path fill="#D6C933" d="M-43.336,46.539c-0.32,0.007-0.556,0.051-0.773,0.211c-0.868,0.343-1.635,0.877-2.518,1.204
			c-0.625,0.232-1.698,0.452-2.037,1.104c-0.283,0.537,0.877,0.469,1.084,0.078c0.173-0.333,1.264-0.544,1.61-0.673
			c0.742-0.276,1.39-0.761,2.125-1.056c0.173-0.022,0.336-0.082,0.44-0.173C-43.046,47.086-42.72,46.533-43.336,46.539z"/>
	</g>
</g>
<path fill="#B84688" d="M105.828-55.858c4.227-2.531,5.72-4.197,4.085-9.22c-1.101-3.383-4.323-8.077-8.487-7.095
	c-15.036,3.552-6.679,21.337-1.372,29.715c5.436,8.59,16.961,18.274,26.273,8.902c3.702-3.729-2.01-10.405-5.002-12.161
	c-0.75-0.439-1.865-0.236-2.625,0.093c-6.748,2.905-10.621-1.743-13.016-7.912c-0.436-1.132-2.801-0.469-2.375,0.639
	c1.675,4.319,4.913,9.742,9.643,11.075c0.823,0.232,1.905-0.025,2.644-0.348c0.985-0.394,1.938-0.85,2.858-1.374
	c1.104,0.424,2.207,0.85,3.307,1.273c3.174,2.707,2.676,6.162-1.497,10.354c-9.854,3.419-17.724-10.538-21.411-17.361
	c-2.305-4.261-3.818-8.884-3.686-13.754c0.333-12.389,21.446-1.446,9.576,5.662C103.368-56.544,104.624-55.139,105.828-55.858
	L105.828-55.858z"/>
<g>
	<g>
		<path fill="#B84688" d="M4.777,5.598c0.831,1.215,5.41,0.327,6.796,0.301c4.094-0.076,8.18-0.446,12.274-0.565
			c4.449-0.13,8.868,0.363,13.308,0.502c2.351,0.074,1.134,11.485,1.071,13.42c-0.047,1.441-0.137,2.873-0.259,4.311
			c-0.293,3.426-2.327,3.227-5.129,3.499c-4.906,0.477-9.812,0.915-14.733,1.193c-4.646,0.264-12.421,2.198-12.674-4.745
			C5.263,18.918,5.297,14.355,5.971,9.8c0.171-1.157-2.055-0.901-2.209,0.139c-0.74,5.007-0.675,10.008-0.491,15.052
			c0.096,2.625,0.742,4.774,3.514,5.335c3.868,0.781,9.082-0.264,13.006-0.485c6.152-0.35,12.285-1.042,18.418-1.622
			c0.398-0.037,1-0.252,1.129-0.693c2.028-6.943,1.809-15.649,0.857-22.765c-0.061-0.455-0.655-0.541-1.003-0.552
			c-8.955-0.281-17.629-0.341-26.585-0.016c-2.302,0.084-8.288-0.924-9.898,1.31C2.521,5.761,2.442,6.066,2.636,6.349
			c0.053,0.078,0.106,0.155,0.159,0.233C3.388,7.449,5.446,6.575,4.777,5.598L4.777,5.598z"/>
	</g>
</g>
<g>
	<g>
		<path fill="#B84688" d="M4.118,7.022c2.668,2.314,6.083,3.269,9.268,4.666c2.113,0.927,5.395,4.308,7.971,3.904
			c1.948-0.306,3.517-1.482,5.062-2.632c4.291-3.192,9.558-4.246,14.187-6.654c1.29-0.671-0.703-0.74-1.292-0.434
			c-5.097,2.651-10.636,3.96-15.37,7.482c-2.746,2.043-5.093-0.713-7.717-2.047C12.872,9.603,9.042,8.742,6.153,6.237
			C5.657,5.807,3.67,6.635,4.118,7.022L4.118,7.022z"/>
	</g>
</g>
<g>
	<g>
		<g>
			
				<linearGradient id="SVGID_2_" gradientUnits="userSpaceOnUse" x1="112.7266" y1="30.9541" x2="145.5556" y2="-2.2538" gradientTransform="matrix(0.9961 0.0881 -0.0881 0.9961 10.8725 -11.5396)">
				<stop  offset="0" style="stop-color:#D0932E"/>
				<stop  offset="0.2592" style="stop-color:#E0C12F"/>
				<stop  offset="0.9799" style="stop-color:#ECDE34"/>
			</linearGradient>
			<path fill="url(#SVGID_2_)" d="M111.3,21.42c-0.127-0.322-0.201-0.535-0.171-0.528c3.556,0.871,8.038-0.413,11.16-2.105
				c3.748-2.031,7.896-2.56,11.38-5.271c2.072-1.618,4.391-3.041,6.41-4.773c1.014-0.871,1.988-1.825,2.77-2.915
				c0.773-1.07,1.123-2.43,2.066-3.376c0.912-0.919,2.086-1.771,3.354-2.027c2.039-0.415,4.918,0.257,6.398,1.788
				c0.77,0.797,1.162,1.887,1.996,2.673c0.287,0.273,3.613,1.266,3.91,0.984c-2.104,0.673-3.178-0.022-4.881,1.347
				c-3.393,2.723-6.285,9.807-8.445,13.412c-5.236,8.724-14.773,15.055-24.934,10.83C117.359,29.399,113.348,26.567,111.3,21.42z"/>
		</g>
		<g>
			<path opacity="0.9" fill="#B84688" d="M137.163,12.717c0.033,0.013,0.064,0.027,0.092,0.041
				c-0.049-0.042-0.121-0.105-0.215-0.182c-3.6-1.867-14.469-9.703-15.615-12.934c-0.521-1.475,0.261-3.239,1.592-4.975
				c-1.023-2.252-1.674-3.911-1.674-3.911s-6.69,9.628-4.963,14.139c2.778,1.487,6.883,3.555,10.605,4.937
				C131.948,11.677,136.087,11.903,137.163,12.717z"/>
			<path opacity="0.9" fill="#B84688" d="M137.04,12.576c0.254,0.132,0.475,0.234,0.65,0.305c0,0-3.453-3.803-5.072-11.326
				c-1.579-7.346-1.018-14.436-1.018-14.436s-5.635,3.698-8.584,7.549c1,2.198,2.358,4.962,3.819,7.302
				C129.339,5.978,135.61,11.373,137.04,12.576z"/>
			<path opacity="0.9" fill="#7A3260" d="M121.425-0.357c1.146,3.23,12.016,11.066,15.615,12.934
				c-1.43-1.203-7.701-6.599-10.204-10.606c-1.461-2.34-2.819-5.104-3.819-7.302C121.686-3.597,120.903-1.832,121.425-0.357z"/>
			<path opacity="0.9" fill="#B84688" d="M135.271,12.668c-5.884-0.664-15.222-3.344-18.293-6.776
				c-0.261-0.293-0.457-0.626-0.598-0.996c-1.993-1.065-3.308-1.833-3.308-1.833s-0.071,5.636,3.368,10.543
				c1.351,0.107,5.892,0.456,7.313,0.42C128.213,13.917,132.683,12.926,135.271,12.668z"/>
			<path opacity="0.9" fill="#7A3260" d="M135.271,12.669c1.928,0.014,2.289,0.198,1.891,0.05
				c-1.074-0.815-5.213-1.042-10.176-2.887c-3.723-1.382-7.827-3.448-10.605-4.937c0.141,0.37,0.337,0.703,0.598,0.996
				C120.049,9.326,129.387,12.004,135.271,12.669z"/>
			<path opacity="0.8" fill="#77497D" d="M137.255,12.758c0.053,0.043,0.082,0.066,0.082,0.066
				c-0.021-0.002-0.039-0.004-0.059-0.003c0.055,0.058,0.094,0.119,0.121,0.183c0.025-0.066,0.039-0.104,0.039-0.104
				C137.396,12.842,137.333,12.797,137.255,12.758z"/>
			<path opacity="0.9" fill="#B84688" d="M123.077,18.255c-1.148-1.156-2.354-2.698-3.518-4.354c-4.766-0.378-8.663-1.4-8.663-1.4
				s2.472,11.619,15.731,10.398c9.008-0.828,10.004-7.961,10.711-9.74C136.376,14.092,127.375,22.587,123.077,18.255z"/>
			<path opacity="0.8" fill="#A52B6F" d="M137.278,12.821c0.02-0.001,0.037,0.001,0.059,0.003c0,0-0.029-0.023-0.082-0.066
				c-0.027-0.014-0.059-0.028-0.092-0.041C137.206,12.75,137.243,12.787,137.278,12.821z"/>
			<path opacity="0.8" fill="#77497D" d="M137.278,12.821c0.02-0.001,0.037,0.001,0.059,0.003c0,0-0.029-0.023-0.082-0.066
				c-0.027-0.014-0.059-0.028-0.092-0.041C137.206,12.75,137.243,12.787,137.278,12.821z"/>
			<path opacity="0.97" fill="#77497D" d="M137.278,12.821c-0.604-0.017-1.277-0.07-2.008-0.153
				c-2.588,0.258-7.058,1.249-11.518,1.357c-1.421,0.036-2.842-0.019-4.193-0.125c1.163,1.656,2.369,3.198,3.518,4.354
				c4.298,4.332,13.299-4.163,14.262-5.097c0.025-0.063,0.045-0.114,0.061-0.154C137.372,12.94,137.333,12.879,137.278,12.821z"/>
			<path opacity="0.9" fill="#7A3260" d="M137.278,12.821c-0.238-0.245-0.479-0.527-1.207-0.609
				c-2.588,0.259-7.858,1.705-12.318,1.813c-1.421,0.036-5.962-0.313-7.313-0.42c1.161,1.657,3.188,3.905,4.605,4.701
				c7.698,4.32,15.33-4.215,16.293-5.148c0.025-0.063,0.045-0.114,0.061-0.154C137.372,12.94,137.333,12.879,137.278,12.821z"/>
			<path opacity="0.8" fill="#A52B6F" d="M135.271,12.668c0.73,0.083,1.404,0.137,2.008,0.153c-0.035-0.034-0.072-0.071-0.115-0.104
				C136.788,12.58,136.136,12.582,135.271,12.668z"/>
			<path fill="#8A3F86" d="M135.271,12.668c0.73,0.083,1.404,0.137,2.008,0.153c-0.035-0.034-0.072-0.071-0.115-0.104
				C136.788,12.58,136.136,12.582,135.271,12.668z"/>
		</g>
		<g>
			<path fill="#9CA634" d="M111.725,20.646c0,0-0.18,0.246-0.646,0.507C111.344,21.025,111.725,20.811,111.725,20.646z"/>
			<path fill="#ADB931" d="M111.56,16.517c-0.112-0.433-3.839-1.5-4.529,0.346c-0.1,0.265,0.641,1.164,1.494,2.082
				c1.63,0.886,3.2,1.702,3.2,1.702C111.725,19.316,111.635,16.807,111.56,16.517z"/>
			<path fill="#ADB931" d="M108.524,18.944c-1.395-0.758-2.831-1.565-3.365-1.95c-2.384-1.717-3.968,3.1-2.488,3.622
				c4.966,1.753,7.384,1.111,8.408,0.537c-0.139,0.069-0.246,0.114-0.246,0.114S109.593,20.092,108.524,18.944z"/>
			<path fill="#9CA634" d="M111.725,20.646c0,0-1.57-0.816-3.2-1.702c1.068,1.147,2.309,2.323,2.309,2.323s0.107-0.045,0.246-0.114
				C111.545,20.893,111.725,20.646,111.725,20.646z"/>
		</g>
	</g>
</g>
</svg>
